<svg version="1.1" viewBox="0.0 0.0 311.9527559055118 323.5590551181102" fill="none" stroke="none" stroke-linecap="square" stroke-miterlimit="10" xmlns:xlink="http://www.w3.org/1999/xlink" xmlns="http://www.w3.org/2000/svg"><clipPath id="p.0"><path d="m0 0l311.95276 0l0 323.55905l-311.95276 0l0 -323.55905z" clip-rule="nonzero"/></clipPath><g clip-path="url(#p.0)"><path fill="#000000" fill-opacity="0.0" d="m0 0l311.95276 0l0 323.55905l-311.95276 0z" fill-rule="evenodd"/><path fill="#ffffff" d="m8.346445 134.26076l0 0c19.090788 -81.28587 100.46216 -131.70496 181.74803 -112.61417l0 0c39.03485 9.167719 72.82907 33.466488 93.94833 67.55086c21.119263 34.084366 27.833557 75.16232 18.665833 114.197174l0 0c-19.09079 81.28589 -100.46216 131.70496 -181.74803 112.61417l0 0c-81.28587 -19.09079 -131.70496 -100.46214 -112.614174 -181.74803z" fill-rule="evenodd"/><path stroke="#0180c9" stroke-width="4.0" stroke-linejoin="round" stroke-linecap="butt" d="m8.346445 134.26076l0 0c19.090788 -81.28587 100.46216 -131.70496 181.74803 -112.61417l0 0c39.03485 9.167719 72.82907 33.466488 93.94833 67.55086c21.119263 34.084366 27.833557 75.16232 18.665833 114.197174l0 0c-19.09079 81.28589 -100.46216 131.70496 -181.74803 112.61417l0 0c-81.28587 -19.09079 -131.70496 -100.46214 -112.614174 -181.74803z" fill-rule="evenodd"/><path fill="#0180c9" d="m270.44226 234.34752c-23.598175 41.380264 -67.62256 66.87697 -115.258514 66.75191c-47.63595 -0.12506104 -91.52584 -25.85257 -114.90642 -67.356155l115.25371 -64.926865z" fill-rule="evenodd"/><path stroke="#0180c9" stroke-width="16.0" stroke-linejoin="round" stroke-linecap="butt" d="m270.44226 234.34752c-23.598175 41.380264 -67.62256 66.87697 -115.258514 66.75191c-47.63595 -0.12506104 -91.52584 -25.85257 -114.90642 -67.356155l115.25371 -64.926865z" fill-rule="evenodd"/><path fill="#ffffff" d="m28.470936 150.65475l250.29921 0l0 84.566925l-250.29921 0z" fill-rule="evenodd"/><path stroke="#ffffff" stroke-width="1.0" stroke-linejoin="round" stroke-linecap="butt" d="m28.470936 150.65475l250.29921 0l0 84.566925l-250.29921 0z" fill-rule="evenodd"/><path fill="#000000" fill-opacity="0.0" d="m1.5575396 79.91087l305.35434 0l0 113.102356l-305.35434 0z" fill-rule="evenodd"/><path fill="#022e51" d="m39.626373 167.634l-10.140627 0l-1.625 4.796875l-6.90625 0l9.8125 -27.140625l7.656252 0l9.8125 27.140625l-7.0 0l-1.609375 -4.796875zm-1.703125 -5.09375l-3.375 -9.9375l-3.312502 9.9375l6.687502 0zm26.442764 -11.90625q3.78125 0 6.03125 2.453125q2.265625 2.453125 2.265625 6.734375l0 12.609375l-6.5625 0l0 -11.71875q0 -2.15625 -1.125 -3.359375q-1.125 -1.203125 -3.015625 -1.203125q-1.890625 0 -3.015625 1.203125q-1.125 1.203125 -1.125 3.359375l0 11.71875l-6.609375 0l0 -21.5625l6.609375 0l0 2.859375q1.015625 -1.4375 2.703125 -2.265625q1.703125 -0.828125 3.84375 -0.828125zm11.585556 10.96875q0 -3.3125 1.25 -5.828125q1.265625 -2.515625 3.421875 -3.859375q2.171875 -1.359375 4.84375 -1.359375q2.28125 0 4.0 0.921875q1.71875 0.921875 2.640625 2.4375l0 -3.046875l6.609375 0l0 21.5625l-6.609375 0l0 -3.046875q-0.953125 1.5 -2.6875 2.4375q-1.71875 0.921875 -4.0 0.921875q-2.625 0 -4.796875 -1.375q-2.15625 -1.375 -3.421875 -3.90625q-1.25 -2.53125 -1.25 -5.859375zm16.15625 0.046875q0 -2.484375 -1.375 -3.90625q-1.359375 -1.4375 -3.328125 -1.4375q-1.984375 0 -3.359375 1.421875q-1.359375 1.40625 -1.359375 3.875q0 2.484375 1.359375 3.9375q1.375 1.4375 3.359375 1.4375q1.96875 0 3.328125 -1.421875q1.375 -1.4375 1.375 -3.90625zm18.013214 -17.828125l0 28.609375l-6.609375 0l0 -28.609375l6.609375 0zm26.841095 7.046875l-13.53125 31.8125l-7.125 0l4.953125 -10.984375l-8.765625 -20.828125l7.375 0l4.984375 13.484375l4.953125 -13.484375l7.15625 0zm14.415115 15.953125l0 5.609375l-3.359375 0q-3.609375 0 -5.625 -1.75q-2.0 -1.765625 -2.0 -5.75l0 -8.578125l-2.625 0l0 -5.484375l2.625 0l0 -5.265625l6.609375 0l0 5.265625l4.328125 0l0 5.484375l-4.328125 0l0 8.65625q0 0.96875 0.46875 1.390625q0.46875 0.421875 1.546875 0.421875l2.359375 0zm6.9913025 -18.203125q-1.734375 0 -2.84375 -1.015625q-1.09375 -1.03125 -1.09375 -2.546875q0 -1.546875 1.09375 -2.5625q1.109375 -1.03125 2.84375 -1.03125q1.703125 0 2.796875 1.03125q1.109375 1.015625 1.109375 2.5625q0 1.515625 -1.109375 2.546875q-1.09375 1.015625 -2.796875 1.015625zm3.28125 2.25l0 21.5625l-6.609375 0l0 -21.5625l6.609375 0zm3.48172 10.78125q0 -3.359375 1.375 -5.875q1.375 -2.515625 3.828125 -3.859375q2.453125 -1.359375 5.625 -1.359375q4.0625 0 6.78125 2.125q2.734375 2.125 3.578125 5.984375l-7.03125 0q-0.890625 -2.46875 -3.4375 -2.46875q-1.828125 0 -2.90625 1.421875q-1.078125 1.40625 -1.078125 4.03125q0 2.625 1.078125 4.046875q1.078125 1.40625 2.90625 1.40625q2.546875 0 3.4375 -2.484375l7.03125 0q-0.84375 3.796875 -3.59375 5.96875q-2.75 2.15625 -6.765625 2.15625q-3.171875 0 -5.625 -1.34375q-2.453125 -1.359375 -3.828125 -3.875q-1.375 -2.515625 -1.375 -5.875zm33.480774 11.09375q-2.828125 0 -5.03125 -0.96875q-2.203125 -0.96875 -3.484375 -2.640625q-1.265625 -1.6875 -1.421875 -3.78125l6.53125 0q0.125 1.125 1.046875 1.828125q0.921875 0.6875 2.28125 0.6875q1.234375 0 1.90625 -0.484375q0.6875 -0.484375 0.6875 -1.25q0 -0.9375 -0.96875 -1.375q-0.96875 -0.453125 -3.125 -0.984375q-2.328125 -0.546875 -3.875 -1.140625q-1.546875 -0.609375 -2.671875 -1.890625q-1.109375 -1.296875 -1.109375 -3.5q0 -1.859375 1.015625 -3.375q1.03125 -1.53125 3.015625 -2.421875q2.0 -0.890625 4.734375 -0.890625q4.0625 0 6.390625 2.015625q2.34375 2.0 2.703125 5.328125l-6.109375 0q-0.15625 -1.125 -0.984375 -1.78125q-0.828125 -0.65625 -2.1875 -0.65625q-1.15625 0 -1.78125 0.453125q-0.609375 0.4375 -0.609375 1.203125q0 0.9375 0.984375 1.40625q0.984375 0.453125 3.0625 0.921875q2.40625 0.609375 3.90625 1.21875q1.515625 0.59375 2.65625 1.9375q1.140625 1.328125 1.171875 3.5625q0 1.890625 -1.0625 3.390625q-1.0625 1.484375 -3.0625 2.34375q-1.984375 0.84375 -4.609375 0.84375zm27.59343 -5.421875l8.671875 0l0 5.109375l-15.28125 0l0 -27.140625l6.609375 0l0 22.03125zm10.517151 -5.71875q0 -3.3125 1.25 -5.828125q1.265625 -2.515625 3.421875 -3.859375q2.171875 -1.359375 4.84375 -1.359375q2.28125 0 4.0 0.921875q1.71875 0.921875 2.640625 2.4375l0 -3.046875l6.609375 0l0 21.5625l-6.609375 0l0 -3.046875q-0.953125 1.5 -2.6875 2.4375q-1.71875 0.921875 -4.0 0.921875q-2.625 0 -4.796875 -1.375q-2.15625 -1.375 -3.421875 -3.90625q-1.25 -2.53125 -1.25 -5.859375zm16.15625 0.046875q0 -2.484375 -1.375 -3.90625q-1.359375 -1.4375 -3.328125 -1.4375q-1.984375 0 -3.359375 1.421875q-1.359375 1.40625 -1.359375 3.875q0 2.484375 1.359375 3.9375q1.375 1.4375 3.359375 1.4375q1.96875 0 3.328125 -1.421875q1.375 -1.4375 1.375 -3.90625zm18.013184 -7.734375q0.9375 -1.515625 2.671875 -2.4375q1.734375 -0.921875 3.984375 -0.921875q2.671875 0 4.828125 1.359375q2.171875 1.34375 3.421875 3.859375q1.265625 2.515625 1.265625 5.828125q0 3.328125 -1.265625 5.859375q-1.25 2.53125 -3.421875 3.90625q-2.15625 1.375 -4.828125 1.375q-2.28125 0 -3.984375 -0.90625q-1.703125 -0.90625 -2.671875 -2.421875l0 3.015625l-6.609375 0l0 -28.609375l6.609375 0l0 10.09375zm9.4375 7.6875q0 -2.46875 -1.375 -3.875q-1.375 -1.421875 -3.375 -1.421875q-1.96875 0 -3.34375 1.4375q-1.375 1.421875 -1.375 3.90625q0 2.46875 1.375 3.90625q1.375 1.421875 3.34375 1.421875q1.96875 0 3.359375 -1.4375q1.390625 -1.453125 1.390625 -3.9375z" fill-rule="nonzero"/><path fill="#0180c9" d="m282.78082 54.33948l0 0c1.782959 -4.9053345 7.204895 -7.436512 12.1102295 -5.6535454l0 0c2.3556213 0.8562126 4.274658 2.613121 5.3349 4.8842316c1.0602417 2.2711105 1.1748657 4.8703804 0.31863403 7.2260056l0 0c-1.782959 4.9053345 -7.204895 7.436508 -12.1102295 5.6535416l0 0c-4.9053345 -1.7829666 -7.436493 -7.2049026 -5.653534 -12.110233z" fill-rule="evenodd"/><path stroke="#0180c9" stroke-width="1.0" stroke-linejoin="round" stroke-linecap="butt" d="m282.78082 54.33948l0 0c1.782959 -4.9053345 7.204895 -7.436512 12.1102295 -5.6535454l0 0c2.3556213 0.8562126 4.274658 2.613121 5.3349 4.8842316c1.0602417 2.2711105 1.1748657 4.8703804 0.31863403 7.2260056l0 0c-1.782959 4.9053345 -7.204895 7.436508 -12.1102295 5.6535416l0 0c-4.9053345 -1.7829666 -7.436493 -7.2049026 -5.653534 -12.110233z" fill-rule="evenodd"/><path fill="#0180c9" d="m246.68999 13.147086l0 0c2.8701324 -7.8450522 11.556534 -11.8780155 19.401566 -9.007874l0 0c3.767334 1.3782907 6.8328247 4.196695 8.522156 7.835196c1.6893005 3.6385012 1.8640137 7.7990522 0.48571777 11.566379l0 0c-2.8701477 7.8450527 -11.556519 11.878017 -19.401566 9.007874l0 0c-7.845047 -2.87014 -11.878021 -11.55652 -9.007874 -19.401573z" fill-rule="evenodd"/><path stroke="#0180c9" stroke-width="1.0" stroke-linejoin="round" stroke-linecap="butt" d="m246.68999 13.147086l0 0c2.8701324 -7.8450522 11.556534 -11.8780155 19.401566 -9.007874l0 0c3.767334 1.3782907 6.8328247 4.196695 8.522156 7.835196c1.6893005 3.6385012 1.8640137 7.7990522 0.48571777 11.566379l0 0c-2.8701477 7.8450527 -11.556519 11.878017 -19.401566 9.007874l0 0c-7.845047 -2.87014 -11.878021 -11.55652 -9.007874 -19.401573z" fill-rule="evenodd"/><path fill="#0180c9" d="m263.19345 43.167477l0 0c1.0784607 -2.9397202 4.335846 -4.448559 7.2755737 -3.370079l0 0c1.4117126 0.5179024 2.559845 1.5753899 3.191864 2.939827c0.63201904 1.3644371 0.6961365 2.924057 0.17822266 4.335762l0 0c-1.0784912 2.9397202 -4.3358765 4.448555 -7.2756042 3.370079l0 0c-2.9396973 -1.078476 -4.4485474 -4.335869 -3.3700562 -7.275589z" fill-rule="evenodd"/><path stroke="#0180c9" stroke-width="1.0" stroke-linejoin="round" stroke-linecap="butt" d="m263.19345 43.167477l0 0c1.0784607 -2.9397202 4.335846 -4.448559 7.2755737 -3.370079l0 0c1.4117126 0.5179024 2.559845 1.5753899 3.191864 2.939827c0.63201904 1.3644371 0.6961365 2.924057 0.17822266 4.335762l0 0c-1.0784912 2.9397202 -4.3358765 4.448555 -7.2756042 3.370079l0 0c-2.9396973 -1.078476 -4.4485474 -4.335869 -3.3700562 -7.275589z" fill-rule="evenodd"/><path fill="#0180c9" d="m97.37813 197.46576c-0.02433014 0 -0.0519104 0.0063323975 -0.081100464 0.018981934c-0.12652588 0.05632019 -0.18086243 0.18351746 -0.108680725 0.26831055c0.08677673 0.11138916 0.1605835 0.165802 0.21492004 0.165802c0.07056427 0 0.1111145 -0.08985901 0.1111145 -0.2645111c0 -0.11959839 -0.053527832 -0.18858337 -0.13625336 -0.18858337zm-0.2757492 0.8504944c-0.2919693 0 -0.5085144 0.558136 -0.42092133 1.1036224c0.036499023 0.28222656 -0.108680725 0.3670349 -0.7055893 0.40942383c-0.61557007 0.05632019 -0.70640564 0.098724365 -0.47120667 0.31071472c0.14517212 0.14111328 0.4890442 0.25439453 0.7785797 0.25439453c0.28953552 0 0.5969162 0.08479309 0.68775177 0.1835022c0.05757904 0.09049988 0.15084839 0.13542175 0.23194885 0.13542175c0.02027893 0 0.039741516 -0.002532959 0.05758667 -0.008224487c0.0721817 -0.042388916 0.47039032 -0.18351746 0.88726044 -0.31069946c0.43389893 -0.15568542 0.72424316 -0.3815918 0.72424316 -0.56510925c0 -0.19996643 -0.11354065 -0.31134033 -0.25466156 -0.31134033c-0.0981369 0 -0.21005249 0.0544281 -0.30656433 0.17022705c-0.09894562 0.12023926 -0.1962738 0.17655945 -0.28061676 0.17655945c-0.16301727 0 -0.28061676 -0.2094574 -0.28061676 -0.57206726c-0.01865387 -0.6214142 -0.1808548 -0.90364075 -0.61556244 -0.9745178c-0.010543823 -0.0012664795 -0.021087646 -0.0019073486 -0.03163147 -0.0019073486zm-19.04689 11.794922c0.12651825 0 0.23519897 0.070877075 0.23519897 0.16958618c0 0.098724365 -0.054336548 0.18351746 -0.108680725 0.18351746c-0.054336548 0 -0.16301727 -0.08479309 -0.23519135 -0.18351746c-0.0721817 -0.09870911 -0.036499023 -0.16958618 0.108673096 -0.16958618zm101.936745 9.50415c-0.03567505 0 -0.06326294 0.14111328 -0.06326294 0.38284302c0 0.23667908 0.026763916 0.3771515 0.060836792 0.3771515c0.015411377 0 0.03163147 -0.025939941 0.047851562 -0.08099365c0.054336548 -0.16958618 0.054336548 -0.43789673 0 -0.6068573c-0.015411377 -0.049362183 -0.03163147 -0.072143555 -0.045425415 -0.072143555zm2.7453156 -4.1948853c-8.087158E-4 0 -0.0016174316 0 -0.0032348633 0.0012664795c-0.07218933 0.042388916 -0.18086243 1.3137054 -0.25305176 2.8109283c-0.09083557 1.4965973 -0.18084717 2.8387756 -0.23518372 2.965973c-0.054351807 0.12719727 -0.054351807 0.31071472 0.017837524 0.3955078c0.07461548 0.09428406 0.13949585 0.1461792 0.19464111 0.1461792c0.22627258 0 0.3049469 -0.86125183 0.34873962 -3.1969452c0.017852783 -1.731369 -0.017028809 -3.1229095 -0.069747925 -3.1229095zm-2.7428741 5.563019c-0.029205322 0 -0.047851562 0.21705627 -0.047851562 0.59609985c0 0.37968445 0.01864624 0.5967407 0.047851562 0.5967407c0.012969971 0 0.026763916 -0.037963867 0.04298401 -0.11643982c0.054336548 -0.25437927 0.054336548 -0.69229126 0 -0.9606018c-0.016220093 -0.07846069 -0.030014038 -0.11579895 -0.04298401 -0.11579895zm-0.0129852295 1.7357941c-0.04298401 0 -0.07055664 0.099975586 -0.07055664 0.2727356c0 0.17276001 0.027572632 0.2727356 0.07055664 0.2727356c0.017028809 0 0.035690308 -0.015182495 0.05596924 -0.046829224c0.054336548 -0.127182 0.054336548 -0.32463074 0 -0.45181274c-0.02027893 -0.03164673 -0.03894043 -0.046829224 -0.05596924 -0.046829224zm-94.25149 -2.015503c0.14517975 0 0.25304413 0.15567017 0.25304413 0.35310364c0 0.18415833 0.108673096 0.3531189 0.21735382 0.3531189c0.12651825 0 0.23519897 -0.08416748 0.23519897 -0.18351746c0 -0.10948181 0.24168396 -0.165802 0.5328369 -0.165802c0.2725067 0 0.58799744 0.049362183 0.78913116 0.15188599c0.21735382 0.09870911 0.23519135 0.1835022 0.054336548 0.26831055c-0.1273346 0.07086182 -0.25385284 0.23982239 -0.25385284 0.39549255c0 0.12277222 0.021896362 0.18289185 0.084350586 0.18289185c0.053527832 0 0.13543701 -0.042404175 0.2595291 -0.12657166c0.15652466 -0.099975586 0.28142548 -0.14491272 0.370636 -0.14491272c0.19950867 0 0.2165451 0.22654724 -0.008110046 0.56889343c-0.16301727 0.23983765 -0.23600769 0.5227051 -0.14517212 0.62142944c0.09083557 0.11264038 0.036491394 0.32463074 -0.108680725 0.46574402c-0.19464874 0.1816101 -0.41362 0.26324463 -0.62448883 0.26324463c-0.49634552 0 -0.95051575 -0.45118713 -0.95051575 -1.1244965c0 -0.25439453 -0.1443634 -0.565094 -0.32522583 -0.70622253c-0.43470764 -0.33917236 -0.706398 -1.1725922 -0.3803711 -1.1725922zm4.578232 2.654007c0.26439667 0 0.6528778 0.1746521 0.6528778 0.34043884c0 0.098724365 -0.1443634 0.18351746 -0.32603455 0.18351746c-0.36171722 0 -0.7055893 -0.32463074 -0.50688934 -0.4803009c0.043792725 -0.03036499 0.107055664 -0.043655396 0.18004608 -0.043655396zm89.68705 0.56066895c-0.030014038 0 -0.04866028 0.17527771 -0.04866028 0.48599243c0 0.31007385 0.01864624 0.49232483 0.047851562 0.49232483c0.012969971 0 0.026763916 -0.03100586 0.04298401 -0.09681702c0.054336548 -0.21199036 0.054336548 -0.57902527 0 -0.7910156c-0.016220093 -0.06138611 -0.030014038 -0.09048462 -0.042175293 -0.09048462zm2.8742676 -13.40416c0.45741272 0 0.542572 0.08416748 0.58880615 0.44424438c0.16300964 1.1017151 0.054336548 1.6244202 -0.47039795 2.2034302c-0.39820862 0.451828 -0.39820862 0.5227051 -0.09083557 0.7910156c0.30818176 0.26831055 0.34387207 1.3839417 0.36253357 8.516327c0.014587402 6.1553345 -0.071380615 8.629608 -0.33415222 8.629608c-0.051086426 0 -0.108673096 -0.09237671 -0.17274475 -0.26831055c-0.07299805 -0.1835022 -0.108673096 -0.9460449 -0.07299805 -1.7085724c0.018661499 -0.76316833 -0.07217407 -1.3985138 -0.19869995 -1.454834c-0.12651062 -0.042388916 -0.108673096 -0.12719727 0.054351807 -0.18351746c0.39820862 -0.14173889 0.3617096 -0.77708435 -0.054351807 -0.77708435c-0.27168274 0 -0.30737305 0.31071472 -0.27168274 1.8503265c0.036499023 1.0169373 -0.017852783 1.9914551 -0.108688354 2.1610413c-0.0032348633 0.008239746 -0.007293701 0.012023926 -0.010528564 0.012023926c-0.0705719 0 -0.15248108 -1.5136719 -0.15248108 -3.4867706c-0.017028809 -2.0332184 0.0519104 -3.6601562 0.12246704 -3.6601562c0.0016174316 0 0.003250122 6.2561035E-4 0.0048675537 0.002532959c0.090026855 0.05630493 0.18086243 0.6916504 0.19869995 1.3978729c0.03730774 1.0890503 0.0664978 1.4953156 0.15733337 1.4953156c0.041366577 0 0.09489441 -0.08352661 0.16870117 -0.22401428c0.27331543 -0.46636963 0.2887268 -1.4231873 0.046218872 -1.4231873c-0.014587402 0 -0.02999878 0.0037994385 -0.046218872 0.010757446c-0.03730774 0.024047852 -0.07461548 0.034805298 -0.107055664 0.034805298c-0.06326294 0 -0.110305786 -0.040496826 -0.110305786 -0.105667114c0 -0.098724365 0.108673096 -0.18351746 0.21736145 -0.18351746c0.3260193 0 0.28953552 -0.77645874 -0.054336548 -1.0593262c-0.13626099 -0.11517334 -0.18734741 -0.16896057 -0.15248108 -0.16896057c0.02027893 0 0.07136536 0.018981934 0.15248108 0.05632019c0.036483765 0.016448975 0.06892395 0.025314331 0.09812927 0.025314331c0.14111328 0 0.19140625 -0.21009827 0.19140625 -0.7036896c0 -0.6068573 -0.09083557 -0.80493164 -0.34388733 -0.80493164c-0.28953552 0 -0.3260193 0.12719727 -0.21734619 0.59358215c0.09083557 0.35310364 0.054336548 0.6492615 -0.090026855 0.72013855c-0.003250122 0.0012664795 -0.0056762695 0.0018920898 -0.008102417 0.0018920898c-0.14031982 0 -0.22790527 -1.8262787 -0.2457428 -5.6794586c-0.017852783 -3.1779633 -0.054336548 -6.059143 -0.07218933 -6.3983154c-0.036499023 -0.56510925 0 -0.60749817 0.74209595 -0.6492615c0.10623169 -0.0044403076 0.19869995 -0.0069732666 0.27980042 -0.0069732666zm-30.418259 -18.946915c-0.7063904 0 -1.7558594 0.67774963 -1.7558594 1.1434937c0 0.16958618 -0.19950867 0.26831055 -0.5247345 0.26831055c-0.3803711 0 -0.61557007 0.16958618 -0.8872528 0.66381836c-0.34388733 0.6498871 -0.45256042 0.9890747 -0.85076904 2.514145c-0.47039795 1.8364105 -0.7785797 2.3584747 -1.4663391 2.500229c-0.34387207 0.070236206 -0.72424316 0.22590637 -0.81425476 0.35310364c-0.30819702 0.3955078 -0.47120667 3.3893127 -0.271698 5.423172l0.18086243 2.0053558l-0.61557007 0.16960144c-0.4160614 0.11326599 -0.6512604 0.31071472 -0.6699066 0.551178c-0.017837524 0.21134949 -0.090026855 4.561905 -0.16220093 9.660446l-0.14517212 9.264954l-0.95944214 0.05632019c-0.09651184 0.005065918 -0.18734741 0.007583618 -0.27331543 0.007583618c-0.41281128 0 -0.6861267 -0.05505371 -0.6861267 -0.1486969c0 -0.098724365 -0.2530365 -0.18351746 -0.5612335 -0.18351746c-0.45254517 0 -0.57907104 -0.08479309 -0.57907104 -0.40942383c0 -0.21199036 -0.108673096 -0.4803009 -0.23519897 -0.59358215c-0.14517212 -0.11264038 -0.27168274 -1.0447693 -0.28953552 -2.2312775c-0.036499023 -1.7655334 -0.09083557 -2.0762482 -0.45254517 -2.2882385c-0.34387207 -0.19743347 -0.43470764 -0.5366211 -0.506897 -2.1888885c-0.07217407 -1.8364105 -0.054336548 -1.9635925 0.36172485 -2.04776c0.41687012 -0.08479309 0.45254517 -0.25439453 0.45254517 -2.570465c0 -1.3561096 -0.07217407 -2.5989532 -0.1443634 -2.7546234c-0.081100464 -0.16516113 -0.15327454 -0.24679565 -0.21734619 -0.24679565c-0.20924377 0 -0.32603455 0.87265015 -0.32603455 2.5489502c0 1.454834 -0.07218933 2.3730316 -0.21736145 2.3730316c-0.1443634 0 -0.23518372 -0.79100037 -0.23518372 -1.9914398c-0.017852783 -2.8248596 -0.18086243 -3.3614807 -1.357666 -4.1948853c-0.64556885 -0.4663849 -1.1532745 -0.6960907 -1.6423187 -0.6960907c-0.42903137 0 -0.8434601 0.17718506 -1.3260193 0.52648926c-0.4160614 0.29678345 -1.0316315 0.67837524 -1.3755035 0.8334198c-0.43470764 0.21199036 -0.6334076 0.43789673 -0.6334076 0.76252747c0 0.25439453 -0.09083557 0.7062073 -0.23600769 0.9890747c-0.12651062 0.29615784 -0.2530365 2.1464844 -0.27087402 4.1379395c-0.051101685 3.0843048 -0.08596802 3.5506897 -0.3730774 3.5506897c-0.019470215 0 -0.039733887 -0.0019073486 -0.06163025 -0.0056915283c-0.035690308 -0.0037994385 -0.06893921 -0.0063323975 -0.10057068 -0.0063323975c-0.3990326 0 -0.47364807 0.38728333 -0.64152527 2.5343933c-0.21734619 2.5989532 -0.34387207 3.0931702 -0.79641724 3.0931702c-0.36172485 0 -0.39822388 -0.66381836 -0.43470764 -9.731323c-0.035690308 -5.352295 -0.090026855 -9.815491 -0.1443634 -9.928772c-0.16464233 -0.3208313 -0.49635315 -0.4866333 -0.9221344 -0.4866333c-0.23033142 0 -0.48823547 0.048736572 -0.7615509 0.14808655c-0.3309021 0.12908936 -0.51986694 0.19616699 -0.6585541 0.19616699c-0.14923096 0 -0.24087524 -0.07783508 -0.39091492 -0.23857117c-0.16301727 -0.18414307 -0.32603455 -0.69229126 -0.34468842 -1.1441193c-0.053527832 -1.2713013 -0.0721817 -1.3839417 -0.2530365 -1.5256958c-0.09083557 -0.070236206 -0.16301727 -0.29615784 -0.16301727 -0.49421692c0 -0.19744873 -0.21735382 -0.96061707 -0.47039032 -1.6946716c-0.4525528 -1.3137054 -0.68775177 -2.14711 -1.1046143 -4.152481c-0.12651825 -0.57902527 -0.32522583 -1.3700409 -0.41605377 -1.7655334l-0.19869995 -0.70622253l-0.1273346 0.5366211c-0.090026855 0.28286743 -0.27088165 1.2852325 -0.39821625 2.2034454c-0.14435577 0.91819763 -0.3617096 2.033844 -0.47039032 2.4717407c-0.12651825 0.437912 -0.3803711 1.3561096 -0.5612259 2.0338593c-0.3438797 1.2289124 -1.0681229 2.6413422 -1.4663315 2.8248444c-0.12651825 0.05632019 -0.21735382 0.4233551 -0.21735382 0.80493164c0 0.49423218 -0.090026855 0.69229126 -0.34387207 0.69229126c-0.18086243 0 -0.3438797 -0.08479309 -0.3438797 -0.16958618c0 -0.099349976 -0.090019226 -0.18351746 -0.21735382 -0.18351746c-0.12651825 0 -0.23519897 0.11264038 -0.23519897 0.25375366c0 0.12719727 -0.23519135 0.28286743 -0.52472687 0.33918762c-0.72424316 0.14111328 -0.81427 0.5081482 -0.81427 3.0786133l-0.01865387 2.1610413l-1.6285324 -0.11264038c-0.9051056 -0.0569458 -2.136238 -0.15567017 -2.7331543 -0.24046326c-0.23844147 -0.03100586 -0.45092773 -0.046829224 -0.63908386 -0.046829224c-0.7420883 0 -1.098938 0.24617004 -1.098938 0.7530365c0 0.16960144 -0.1808548 0.36766052 -0.39820862 0.4239807c-0.36171722 0.08480835 -0.39821625 0.3955078 -0.32603455 3.8272247c0.036499023 2.0623322 -0.017845154 3.7993927 -0.108680725 3.8841858c-0.06488037 0.041763306 -0.3284607 0.06896973 -0.68531036 0.06896973c-0.24087524 0 -0.5247345 -0.012023926 -0.8167038 -0.040496826c-1.285469 -0.099349976 -1.3219681 -0.11326599 -1.176796 -0.565094c0.43470764 -1.3415527 0.41605377 -1.3700256 -0.2530365 -1.46875c-0.21248627 -0.03289795 -0.3811798 -0.051254272 -0.5141907 -0.051254272c-0.39091492 0 -0.4817505 0.1594696 -0.4817505 0.6017914c0 0.66381836 -0.43470764 1.0593262 -1.2311325 1.1156464l-0.68774414 0.05696106l-0.16301727 -1.4124298c-0.0721817 -0.7770996 -0.090026855 -1.5535431 -0.03568268 -1.7092133c0.054336548 -0.16960144 0.12651825 -3.1634216 0.16300964 -6.6520844l0.035690308 -6.3559265l-0.5612335 -0.08480835c-0.049468994 -0.006958008 -0.10462189 -0.010757446 -0.16300964 -0.010757446c-0.59935 0 -1.5701447 0.36766052 -1.3390045 0.5480194c0.01865387 0.014556885 0.047851562 0.021514893 0.08353424 0.021514893c0.10057068 0 0.25385284 -0.05505371 0.3868637 -0.14871216c0.030815125 -0.019622803 0.058387756 -0.03164673 0.08434296 -0.03164673c0.23357391 0 0.27980804 0.96377563 0.29602814 5.709198c0 3.2342834 0.054336548 8.248032 0.108673096 11.143768l0.090026855 5.2535706l-2.0454025 0l-0.035690308 -3.940506c-0.036491394 -3.9544067 -0.054336548 -4.519516 -0.12732697 -6.7083893c-0.054336548 -1.0593262 -0.10786438 -1.1865234 -0.5060806 -1.1865234c-0.3803711 0 -0.4525528 -0.12719727 -0.4890442 -0.74861145l-0.036499023 -0.74861145l-0.16301727 0.7910156c-0.012161255 0.06201172 -0.02433014 0.09239197 -0.03568268 0.09239197c-0.07299042 0 -0.12408447 -1.175766 -0.108673096 -3.0020447c0.017837524 -2.1186523 -0.0721817 -4.0816193 -0.21735382 -4.5897675l-0.23519897 -0.88972473l-0.18086243 0.74798584c-0.12732697 0.565094 -0.28953552 0.7631531 -0.5977249 0.7631531c-0.27169037 0 -0.41605377 -0.127182 -0.38036346 -0.31069946c0.01865387 -0.16960144 0 -0.76316833 -0.017845154 -1.2997894l-0.036499023 -0.9884491l-0.6690903 0.08479309c-0.15409851 0.017089844 -0.27413177 0.02848816 -0.3673935 0.02848816c-0.28953552 0 -0.32035828 -0.11012268 -0.32035828 -0.4948578c0 -0.38095093 0.10786438 -0.55055237 0.34387207 -0.55055237c0.18086243 0 0.3438797 -0.12719727 0.3438797 -0.26831055c0 -0.1398468 -0.06326294 -0.19996643 -0.23682404 -0.19996643c-0.08921051 0 -0.20761871 0.015823364 -0.36090088 0.044296265c-0.1313858 0.02468872 -0.24493408 0.037338257 -0.34549713 0.037338257c-0.2425003 0 -0.40550995 -0.07467651 -0.55960846 -0.23477173c-0.13625336 -0.14744568 -0.23600769 -0.21388245 -0.3446808 -0.21388245c-0.07948303 0 -0.16382599 0.03543091 -0.27088165 0.100616455c-0.120033264 0.075302124 -0.30575562 0.11959839 -0.4793167 0.11959839c-0.08759308 0 -0.17193604 -0.011398315 -0.24411774 -0.034805298c-0.10543823 -0.03164673 -0.18247986 -0.049362183 -0.23439026 -0.049362183c-0.10786438 0 -0.1054306 0.075302124 -0.019462585 0.24742126c0.09083557 0.16960144 0.054336548 0.80493164 -0.090019226 1.3978729c-0.14517975 0.59358215 -0.271698 1.3137207 -0.3081894 1.6105042c-0.036499023 0.28222656 -0.0721817 0.6214142 -0.090026855 0.74861145c-0.01865387 0.1265564 -0.19950867 0.22590637 -0.3803711 0.22590637c-0.4168625 0 -0.4168625 -0.24046326 0.017845154 -1.1586609c0.24168396 -0.53915405 0.33657074 -0.7777252 0.28142548 -0.7777252c-0.036499023 0 -0.13544464 0.100616455 -0.29927063 0.28349304c-0.79642487 0.9042816 -1.0859604 2.3730316 -1.2489777 6.6805573c-0.108673096 2.585022 -0.3081894 4.8587036 -0.54338074 5.8193054c-0.19869995 0.8751831 -0.4160614 2.852707 -0.48823547 4.40625c-0.054344177 1.5396271 -0.16301727 2.8672485 -0.21735382 2.952057c-0.039741516 0.038589478 -0.12895966 0.06011963 -0.23682404 0.06011963c-0.08921051 0 -0.1905899 -0.014556885 -0.28791046 -0.046203613c-0.5612335 -0.16958618 -2.2992554 -1.3984985 -2.2992554 -1.6383362c0 -0.098724365 -0.2530365 -0.49423218 -0.59690857 -0.8758087c-0.39821625 -0.4803009 -0.7607422 -0.70622253 -1.1046143 -0.70622253c-0.86860657 0 -1.6836853 -0.32463074 -1.6836853 -0.6638031c0 -0.46575928 -0.4525528 -0.74861145 -1.1759872 -0.74861145c-0.7607422 0 -0.79642487 0.11326599 -0.16301727 0.63597107c0.43389893 0.36701965 0.4525528 0.46574402 0.21735382 1.3839417c-0.28953552 1.0308533 -0.19950867 1.3415527 0.3438797 1.3415527c0.34387207 0 0.41605377 0.4948578 0.1808548 1.2004395c-0.07623291 0.20249939 -0.2165451 0.32400513 -0.35604095 0.32400513c-0.02594757 0 -0.052711487 -0.0037994385 -0.07866669 -0.013290405c-0.021896362 -0.0056915283 -0.043792725 -0.008224487 -0.064071655 -0.008224487c-0.17923737 0 -0.29116058 0.22528076 -0.38848114 0.75683594c-0.1808548 1.0738678 -0.27169037 1.2713165 -0.542572 1.2713165c-0.16301727 0 -0.23519897 -1.4263611 -0.23519897 -4.1803436c0 -2.2591248 -0.069747925 -4.055664 -0.15814972 -4.055664c-0.001625061 0 -0.0032424927 6.4086914E-4 -0.0048675537 0.0018920898c-0.108673096 0.070877075 -0.18167114 1.9351349 -0.18167114 4.1385803l0 3.996811l-1.3933334 0.05632019l-1.3941498 0.05632019l-0.0721817 -4.8017426c-0.054336548 -3.6582794 -0.1443634 -4.8302307 -0.36171722 -4.886551c-0.16301727 -0.042404175 -0.28953552 -0.33918762 -0.28953552 -0.67837524c0 -0.66381836 -0.63422394 -1.2991486 -1.3219681 -1.2991486c-0.5969162 0 -0.6699066 -0.12719727 -0.47039795 -0.8334198c0.108680725 -0.39549255 0.4525528 -0.80493164 0.88726044 -1.0732422c0.37956238 -0.22590637 0.68775177 -0.49421692 0.68775177 -0.5929413c0 -0.08479309 -0.36252594 -0.32525635 -0.79642487 -0.5372467c-0.8507614 -0.38095093 -1.0859604 -1.0732422 -0.43470764 -1.2706757c0.43470764 -0.14112854 0.19950867 -0.4663849 -0.32603455 -0.4663849c-0.21735382 0 -0.542572 -0.19743347 -0.7055893 -0.437912c-0.16301727 -0.23982239 -0.39821625 -0.43789673 -0.4890442 -0.43789673c-0.108680725 0 -0.19870758 -0.21136475 -0.19870758 -0.451828c0 -0.32525635 -0.049468994 -0.42144775 -0.36981964 -0.42144775c-0.06893921 0 -0.15003967 0.004425049 -0.2457428 0.012023926c-0.47039795 0.042404175 -0.6334076 0.16958618 -0.68775177 0.5081482c-0.054336548 0.24046326 -0.19950867 0.5087738 -0.34387207 0.60749817c-0.14517212 0.09870911 -0.39820862 0.40942383 -0.5612259 0.69229126c-0.23519897 0.42333984 -0.23519897 0.5505371 0 0.6777344c0.13219452 0.07720947 0.17680359 0.11264038 0.12651825 0.11264038c-0.032440186 0 -0.10381317 -0.014556885 -0.21735382 -0.041763306c-0.06650543 -0.017089844 -0.12976074 -0.025314331 -0.1905899 -0.025314331c-0.3544159 0 -0.6163788 0.2841339 -0.7866974 0.88656616c-0.09082794 0.29678345 -0.3617096 0.69229126 -0.57907104 0.8758087c-0.5612259 0.49421692 -0.8872528 1.2289124 -0.8872528 2.019287c0 0.4239807 -0.1443634 0.77708435 -0.3803711 0.91819763c-0.19869995 0.14112854 -0.57907104 0.60749817 -0.85076904 1.0454102c-0.4338913 0.72013855 -0.47039032 1.1719513 -0.542572 5.154846l-0.0721817 4.3784027l-0.5977249 0.098724365c-3.240036 0.551178 -4.760704 1.8927307 -5.1224213 4.547989c-0.13381958 0.89923096 -0.22141266 1.1491852 -0.4752655 1.1491852c-0.021896362 0 -0.043792725 -0.0018920898 -0.068122864 -0.005065918c-0.34387589 -0.05632019 -0.37955856 -0.5087738 -0.41605377 -4.477112c-0.036499023 -5.8471527 -0.21735764 -8.02211 -0.6699066 -8.417618c-0.19869995 -0.16960144 -0.7055931 -0.3955078 -1.1224556 -0.49423218c-0.68774796 -0.18414307 -0.7777748 -0.28286743 -0.7964287 -0.8479614c-0.054336548 -1.1858826 -0.09002304 -1.5250702 -0.28953552 -2.7963715c-0.21735382 -1.4124298 -0.28953552 -1.46875 -2.189762 -1.46875c-0.5612297 0 -1.1224556 -0.08479309 -1.2676315 -0.18351746c-0.100566864 -0.08226013 -0.22059631 -0.11897278 -0.3414383 -0.11897278c-0.3146782 0 -0.6358452 0.24806213 -0.6358452 0.5847168c0 0.4663849 0.43471146 0.4239807 -6.2270393 0.5087738c-0.9951248 0.013931274 -2.099739 0.12719727 -2.4436111 0.23983765c-0.40875626 0.12908936 -0.7883148 0.19300842 -1.0583878 0.19300842c-0.2919693 0 -0.45498276 -0.07467651 -0.38928986 -0.22085571c0.043792725 -0.102508545 0.27331543 -0.16769409 0.6439514 -0.16769409c0.09083557 0 0.18978119 0.0037994385 0.29683685 0.012023926c0.17436981 0.011398315 0.3122406 0.017089844 0.4201088 0.017089844c0.30575562 0 0.35684967 -0.050628662 0.249794 -0.18667603c-0.10867691 -0.14111328 -0.19869995 -0.32463074 -0.19869995 -0.4233551c0 -0.09870911 -0.10867691 -0.16958618 -0.23600769 -0.1835022c-0.12651825 0 -0.45174026 -0.099349976 -0.7420883 -0.22592163c-0.20437622 -0.09048462 -0.47363663 -0.13795471 -0.6966667 -0.13795471c-0.0916481 0 -0.17599487 0.008224487 -0.24411774 0.02468872c-0.36252975 0.08479309 -0.43471146 0.26831055 -0.39821243 1.2004395c0.01784134 0.5935669 -0.054340363 1.2573853 -0.14517593 1.4687347c-0.11435318 0.26895142 -0.7064018 0.5094147 -1.0454063 0.5094147c-0.14192963 0 -0.239254 -0.041763306 -0.239254 -0.14173889c0 -0.0892334 -0.016220093 -0.1328888 -0.047039032 -0.1328888c-0.101379395 0 -0.36495972 0.47332764 -0.7680397 1.3611603c-0.34387207 0.7910156 -0.75992966 1.3561096 -1.2124786 1.6528931l-0.6699066 0.437912l-0.054340363 5.013733c-0.054336548 5.1687775 -0.10867691 5.494049 -0.9951248 5.494049c-0.27169418 0 -0.32603073 1.1580353 -0.32603073 7.852524l0 7.8525085l231.4783 0l-0.054351807 -12.837784l-0.05432129 -12.852966l-0.52474976 -0.74861145c-0.27166748 -0.4233551 -0.61553955 -1.2567596 -0.77856445 -1.8781738l-0.271698 -1.1156464l-1.6650391 -0.12719727c-0.3925171 -0.0284729 -0.72262573 -0.045562744 -1.0007935 -0.045562744c-1.2497864 0 -1.4606628 0.3531189 -1.6236572 1.6699829c-0.12652588 0.88974 -0.34387207 1.4124298 -0.9416199 2.1888885l-0.79641724 1.003006l0 2.6831055l0 2.683731l-0.778595 -0.11326599c-0.43389893 -0.070236206 -1.1402893 -0.23983765 -1.5741882 -0.38095093l-0.79641724 -0.25439453l0 -1.2852325c0 -0.79100037 -0.12734985 -1.4124298 -0.30819702 -1.6244202c-0.1630249 -0.19743347 -0.37954712 -0.57901 -0.45254517 -0.84732056c-0.090026855 -0.25439453 -0.25305176 -0.4803009 -0.37954712 -0.4803009c-0.12734985 0 -0.21737671 -0.19744873 -0.21737671 -0.4233551c0 -0.41638184 -0.8166809 -1.0662842 -1.2457275 -1.0662842c-0.0664978 0 -0.1232605 0.015197754 -0.16625977 0.049362183c-0.108673096 0.08479309 -0.2538452 2.019287 -0.3260193 4.2790527c-0.07220459 2.2743073 -0.21737671 4.2936096 -0.30737305 4.4916687c-0.121673584 0.26008606 -0.29360962 0.3322296 -1.1532898 0.3322296c-0.16706848 0 -0.36090088 -0.0031585693 -0.5847473 -0.007598877c-1.7737122 -0.013916016 -2.0997467 -0.11264038 -2.0997467 -0.5929413c0 -0.37145996 -0.75668335 -0.5138397 -3.1029663 -0.5138397c-0.51013184 0 -1.0965118 0.006958008 -1.7664185 0.019622803l-2.931839 0.05632019l-0.1273346 1.0593109l-0.108673096 1.0593262l-4.072159 0l-0.054336548 -6.7653503c-0.036499023 -5.8332367 0 -6.7653503 0.28953552 -6.8501587c0.18086243 -0.05632019 0.32603455 -0.26831055 0.32603455 -0.46574402c0 -0.1816101 -0.062454224 -0.2664032 -0.1865387 -0.2664032c-0.039733887 0 -0.08677673 0.008850098 -0.13949585 0.025939941c-0.021896362 0.0063323975 -0.041366577 0.009490967 -0.060012817 0.009490967c-0.2530365 0 -0.28385925 -0.5923157 -0.28385925 -3.483612c0 -1.9629669 -0.07299805 -3.7569885 -0.14517212 -3.982895c-0.108673096 -0.31071472 -0.035690308 -0.4239807 0.34387207 -0.49421692c0.57907104 -0.12719727 0.61557007 -0.3815918 0.108673096 -0.67837524c-0.32603455 -0.18351746 -0.39820862 -0.5929413 -0.43389893 -2.3584747c-0.01864624 -1.4124298 -0.12731934 -2.2312927 -0.3260193 -2.400879c-0.19952393 -0.18351746 -0.19952393 -0.26831055 -0.036499023 -0.26831055c0.14517212 0 0.2538452 -0.16958618 0.2538452 -0.35310364c0 -0.19807434 -0.108673096 -0.35310364 -0.23600769 -0.35310364c-0.12652588 0 -0.18086243 -0.15568542 -0.10786438 -0.33918762c0.07867432 -0.1942749 0.06163025 -0.2702179 -0.1184082 -0.2702179c-0.06893921 0 -0.1605835 0.010757446 -0.27980042 0.030380249c-0.053527832 0.007598877 -0.10786438 0.012023926 -0.16221619 0.012023926c-0.33332825 0 -0.69584656 -0.15060425 -1.177597 -0.4784088c-0.43470764 -0.31069946 -0.95944214 -0.5505371 -1.1581421 -0.5505371c-0.54338074 0 -0.61557007 -0.26831055 -0.2538452 -0.9460449c0.28953552 -0.551178 0.28953552 -0.7207794 0.017837524 -1.2289276c-0.45173645 -0.86187744 -1.5222931 -1.3371124 -2.9253693 -1.3371124c-0.114349365 0 -0.23194885 0.0031585693 -0.35035706 0.009490967c-2.462265 0.14111328 -3.620407 1.2852325 -3.6747437 3.6861115c-0.023529053 0.67204285 -0.047042847 0.9700928 -0.09408569 0.9700928c-0.0259552 0 -0.060012817 -0.09239197 -0.10543823 -0.2638855c-0.07785034 -0.29742432 -0.12408447 -0.4385376 -0.15327454 -0.4385376c-0.025146484 0 -0.03730774 0.1025238 -0.045425415 0.29742432c-0.017837524 0.25439453 -0.14517212 0.6777344 -0.30818176 0.9460449c-0.23519897 0.3955078 -0.21653748 0.49423218 0.16300964 0.70622253c0.23519897 0.14111328 0.36253357 0.25437927 0.271698 0.26831055c-0.09083557 0.014541626 -0.2530365 0.0284729 -0.3617096 0.042388916c-0.4347229 0.05632019 -0.48905945 0.29678345 -0.47120667 2.0762482c0 1.003006 -0.07218933 3.008377 -0.1443634 4.44928l-0.14517212 2.612854l-0.5247345 -0.099349976c-0.14517212 -0.026565552 -0.3633423 -0.040496826 -0.60583496 -0.040496826c-0.271698 0 -0.5750122 0.017715454 -0.84184265 0.05505371l-0.9051056 0.11264038l0 2.443283l0 2.4578247l-2.6796265 0c-1.7736969 0 -2.7509918 0.070236206 -2.931839 0.21199036c-0.21736145 0.1550293 -0.23519897 2.3723907 -0.1273346 9.533249l0.14517212 9.321274l-0.5247345 0.43789673c-0.59935 0.50434875 -2.1451569 0.9333954 -3.2278748 0.9333954c-0.1605835 0 -0.31143188 -0.009490967 -0.4468689 -0.02909851c-0.95944214 -0.14175415 -2.8239899 -1.3700409 -2.9140167 -1.9212189c-0.05189514 -0.2531128 -0.19950867 -0.36828613 -0.47525024 -0.36828613c-0.016220093 0 -0.0332489 6.2561035E-4 -0.05029297 0.0012664795c-0.040542603 0.0037994385 -0.077041626 0.006958008 -0.11109924 0.006958008c-0.32603455 0 -0.33738708 -0.25628662 -0.3049469 -2.1256104c0.017837524 -1.1865082 0.108673096 -2.7963715 0.19950867 -3.5734558c0.10786438 -1.0023804 0.07217407 -1.46875 -0.09083557 -1.5674744c-0.32603455 -0.14111328 -0.34387207 -0.91819763 -0.036499023 -1.0732422c0.32603455 -0.15567017 0.271698 -0.74861145 -0.054336548 -0.83340454c-0.21653748 -0.05632019 -0.18086243 -0.25439453 0.14517212 -0.73469543c0.34387207 -0.49421692 0.39820862 -0.73405457 0.21736145 -0.9599762c-0.14517212 -0.15567017 -0.18086243 -0.45181274 -0.07299805 -0.6498871c0.09083557 -0.18351746 0.108673096 -0.60749817 0.054336548 -0.91819763c-0.07948303 -0.38539124 -0.18734741 -0.53030396 -0.45903015 -0.53030396c-0.03730774 0 -0.077056885 0.0031738281 -0.12004089 0.008224487c-0.023513794 0.0012664795 -0.046218872 0.002532959 -0.06730652 0.002532959c-0.3309021 0 -0.47851562 -0.2157898 -0.80130005 -1.090332c-0.21734619 -0.6214142 -0.45254517 -1.1719513 -0.5068817 -1.2143555c-0.054336548 -0.042388916 -1.5020142 -0.12719727 -3.2221985 -0.18414307l-3.1135254 -0.098724365l0.14517212 0.69229126c0.090026855 0.38095093 0.45256042 1.1580505 0.8329315 1.7231445l0.68774414 1.0447693l0 3.9550476l0 3.940506l-2.806137 0c-3.0770264 0 -3.1492157 0.027832031 -3.403061 1.1010742c-0.1443634 0.66381836 -0.16300964 0.66381836 -1.2668152 0.66381836c-1.2489777 0 -2.1175842 -0.46574402 -2.3714447 -1.2852325c-0.0900116 -0.26831055 -0.2530365 -0.47966003 -0.3617096 -0.47966003c-0.108673096 0 -0.19950867 -4.576477 -0.19950867 -10.7621765c0 -7.8670807 -0.07218933 -10.8754425 -0.271698 -11.21463c-0.1443634 -0.25375366 -0.7420807 -0.66381836 -1.3390045 -0.917572c-0.68774414 -0.28286743 -1.1046143 -0.59358215 -1.1589508 -0.83340454c-0.03567505 -0.22592163 -0.2530365 -0.3955078 -0.56040955 -0.42399597c-0.41687012 -0.042388916 -0.5255432 -0.16958618 -0.5255432 -0.5929413c0 -0.91819763 -0.34387207 -1.2004242 -1.4841766 -1.2004242c-1.4476776 0 -1.9002228 0.22590637 -1.9002228 0.9745178c0 0.5505371 -0.108688354 0.66381836 -0.778595 0.8758087c-1.3033142 0.42333984 -2.769638 1.2991486 -3.240036 1.9066467c-0.23519897 0.31071472 -0.5068817 0.9599762 -0.57907104 1.4402771c-0.09083557 0.4663849 -0.21734619 0.9042816 -0.28953552 0.9606018c-0.014587402 0.010757446 -0.03892517 0.015823364 -0.07217407 0.015823364c-0.13949585 0 -0.4322815 -0.09112549 -0.72424316 -0.22781372c-0.36091614 -0.16073608 -0.8523865 -0.28349304 -1.1338196 -0.28349304c-0.014587402 0 -0.029190063 0 -0.04298401 0.0012664795c-0.3803711 0.013916016 -0.41685486 0.042388916 -0.09083557 0.09870911c0.47039795 0.098724365 0.5247345 0.40942383 0.054336548 0.40942383c-0.19869995 0 -0.39820862 -0.013916016 -0.4703827 -0.042388916c-0.00730896 -0.002532959 -0.016220093 -0.0044403076 -0.025146484 -0.0044403076c-0.077041626 0 -0.20518494 0.10568237 -0.3187256 0.24490356c-0.19952393 0.29615784 -0.271698 16.086624 -0.07218933 17.682571c0.053527832 0.45181274 0.017852783 0.83340454 -0.108673096 0.83340454c-0.19950867 0 -0.7964325 -1.8642578 -0.70640564 -2.2034454c0.09083557 -0.35310364 0 -0.79100037 -0.18086243 -0.79100037c-0.09082031 0 -0.16300964 0.21199036 -0.18084717 0.4803009c0 0.26831055 -0.018661499 0.8758087 -0.054336548 1.3700256c-0.021896362 0.51194763 -0.03730774 0.72013855 -0.121658325 0.72013855c-0.05596924 0 -0.14030457 -0.0892334 -0.27656555 -0.23983765c-0.21005249 -0.23983765 -0.3552246 -0.36386108 -0.49227905 -0.36386108c-0.16950989 0 -0.32522583 0.19110107 -0.5758362 0.58976746c-0.24978638 0.4094391 -0.4655304 0.6100311 -0.61151123 0.6100311c-0.1703186 0 -0.24493408 -0.27464294 -0.16706848 -0.8080902c0.14517212 -1.0447693 -0.37956238 -3.841156 -0.83210754 -4.34993c-0.19950867 -0.21199036 -0.36253357 -0.5227051 -0.36253357 -0.69229126c0 -0.31071472 -1.8823853 -0.87516785 -3.6747437 -1.1156464c-0.47039795 -0.05632019 -0.85076904 -0.19743347 -0.86860657 -0.32463074c0 -0.11326599 -0.017837524 -1.9490509 -0.035690308 -4.096161c-0.016220093 -1.8661499 -0.046218872 -3.1596222 -0.08920288 -3.1596222c-0.006500244 0 -0.0129852295 0.02658081 -0.019470215 0.08100891c-0.036499023 0.43789673 -0.21736145 0.8758087 -0.39820862 0.9884491c-0.271698 0.15567017 -0.34387207 0.80493164 -0.34387207 3.3051605c-0.014602661 2.2078552 -0.12571716 3.282364 -0.36010742 3.282364c-0.06892395 0 -0.14759827 -0.0917511 -0.23762512 -0.27400208c-0.07055664 -0.13795471 -0.1111145 -0.20503235 -0.16545105 -0.20503235c-0.05757141 0 -0.12976074 0.0740509 -0.2692566 0.21896362c-0.16300964 0.16958618 -0.6334076 0.36701965 -1.049469 0.4239807c-0.7420807 0.127182 -0.7420807 0.127182 -0.81507874 1.2428284c-0.053527832 0.9321289 -0.12651062 1.1295624 -0.506073 1.2004395c-0.32603455 0.070236206 -0.43470764 0.23983765 -0.43470764 0.6777344c0 1.003006 -0.34387207 1.4409027 -1.2311401 1.5681c-0.5247345 0.070251465 -0.81427 0.21136475 -0.81427 0.40942383c0 0.15504456 -0.16300964 0.437912 -0.38035583 0.62142944c-0.21736145 0.1835022 -0.4347229 0.7062073 -0.506897 1.1580353l-0.12652588 0.8194885l-2.9326477 0l0 -10.493866l0 -10.508423l-0.506897 -0.86125183c-0.463089 -0.76441956 -0.5871887 -0.9694519 -0.40145874 -0.9694519c0.06813049 0 0.17842102 0.02720642 0.32928467 0.06517029c0.13543701 0.032913208 0.23843384 0.050628662 0.3106079 0.050628662c0.20762634 0 0.16140747 -0.1461792 -0.09326172 -0.5024414c-0.12652588 -0.19744873 -0.4160614 -0.338562 -0.6520691 -0.338562c-0.23518372 0 -0.52471924 -0.099349976 -0.6147461 -0.22654724c-0.09083557 -0.1265564 -0.14517212 -1.7933807 -0.108673096 -3.7139435l0.054336548 -3.488678l-0.70640564 -0.19807434c-0.81427 -0.22590637 -1.2124786 -0.84732056 -0.99513245 -1.5813751c0.108688354 -0.42399597 0.035690308 -0.53663635 -0.41685486 -0.66381836c-0.5425873 -0.16960144 -0.5425873 -0.16960144 -1.2124786 -2.6976624c-0.07218933 -0.26831055 -0.32603455 -0.62142944 -0.5612335 -0.7770996c-0.23519897 -0.16958618 -0.43470764 -0.42333984 -0.43470764 -0.5505371c0 -0.22338867 -0.24493408 -0.35627747 -0.5352783 -0.35627747c-0.16950989 0 -0.3544159 0.045562744 -0.5141907 0.14428711c-0.15652466 0.100616455 -0.24330139 0.14997864 -0.27331543 0.14997864c-0.029190063 0 -0.0064849854 -0.045562744 0.05596924 -0.13606262c0.27168274 -0.35310364 -0.506897 -0.917572 -1.2668304 -0.917572z" fill-rule="evenodd"/><path fill="#000000" fill-opacity="0.0" d="m-3.2029521 71.631l314.96063 0l0 66.267715l-314.96063 0z" fill-rule="evenodd"/><path fill="#022e51" d="m86.323074 118.01662q-2.984375 0 -5.34375 -0.953125q-2.359375 -0.96875 -3.765625 -2.859375q-1.40625 -1.90625 -1.484375 -4.578125l7.03125 0q0.15625 1.515625 1.046875 2.3125q0.890625 0.78125 2.3125 0.78125q1.46875 0 2.3125 -0.671875q0.859375 -0.671875 0.859375 -1.875q0 -1.0 -0.671875 -1.65625q-0.671875 -0.65625 -1.65625 -1.078125q-0.984375 -0.4375 -2.8125 -0.96875q-2.625 -0.8125 -4.296875 -1.625q-1.65625 -0.8125 -2.859375 -2.390625q-1.1875 -1.59375 -1.1875 -4.140625q0 -3.796875 2.734375 -5.9375q2.75 -2.140625 7.15625 -2.140625q4.484375 0 7.21875 2.140625q2.75 2.140625 2.953125 5.96875l-7.15625 0q-0.078125 -1.3125 -0.96875 -2.0625q-0.890625 -0.765625 -2.28125 -0.765625q-1.1875 0 -1.921875 0.640625q-0.734375 0.640625 -0.734375 1.84375q0 1.3125 1.234375 2.046875q1.234375 0.734375 3.859375 1.578125q2.625 0.890625 4.265625 1.703125q1.65625 0.8125 2.84375 2.359375q1.203125 1.546875 1.203125 3.984375q0 2.3125 -1.1875 4.21875q-1.171875 1.890625 -3.421875 3.015625q-2.234375 1.109375 -5.28125 1.109375zm23.77359 0.046875q-3.171875 0 -5.703125 -1.34375q-2.53125 -1.359375 -3.984375 -3.875q-1.453125 -2.515625 -1.453125 -5.875q0 -3.328125 1.46875 -5.859375q1.46875 -2.53125 4.015625 -3.875q2.5625 -1.359375 5.734375 -1.359375q3.171875 0 5.71875 1.359375q2.546875 1.34375 4.015625 3.875q1.46875 2.53125 1.46875 5.859375q0 3.328125 -1.484375 5.859375q-1.484375 2.53125 -4.0625 3.890625q-2.5625 1.34375 -5.734375 1.34375zm0 -5.71875q1.890625 0 3.21875 -1.390625q1.34375 -1.390625 1.34375 -3.984375q0 -2.59375 -1.296875 -3.984375q-1.296875 -1.390625 -3.1875 -1.390625q-1.9375 0 -3.21875 1.375q-1.265625 1.375 -1.265625 4.0q0 2.59375 1.25 3.984375q1.265625 1.390625 3.15625 1.390625zm13.483398 -5.375q0 -3.359375 1.3750076 -5.875q1.375 -2.515625 3.8281174 -3.859375q2.453125 -1.359375 5.625 -1.359375q4.0625 0 6.78125 2.125q2.734375 2.125 3.578125 5.984375l-7.03125 0q-0.890625 -2.46875 -3.4375 -2.46875q-1.828125 0 -2.90625 1.421875q-1.078125 1.40625 -1.078125 4.03125q0 2.625 1.078125 4.046875q1.078125 1.40625 2.90625 1.40625q2.546875 0 3.4375 -2.484375l7.03125 0q-0.84375 3.796875 -3.59375 5.96875q-2.75 2.15625 -6.765625 2.15625q-3.171875 0 -5.625 -1.34375q-2.4531174 -1.359375 -3.8281174 -3.875q-1.3750076 -2.515625 -1.3750076 -5.875zm28.027649 -13.03125q-1.734375 0 -2.84375 -1.015625q-1.09375 -1.03125 -1.09375 -2.546875q0 -1.546875 1.09375 -2.5625q1.109375 -1.03125 2.84375 -1.03125q1.703125 0 2.796875 1.03125q1.109375 1.015625 1.109375 2.5625q0 1.515625 -1.109375 2.546875q-1.09375 1.015625 -2.796875 1.015625zm3.28125 2.25l0 21.5625l-6.609375 0l0 -21.5625l6.609375 0zm25.13797 10.421875q0 0.9375 -0.125 1.9375l-14.953125 0q0.15625 2.015625 1.296875 3.078125q1.140625 1.0625 2.796875 1.0625q2.46875 0 3.4375 -2.09375l7.046875 0q-0.546875 2.125 -1.96875 3.828125q-1.40625 1.703125 -3.53125 2.671875q-2.125 0.96875 -4.75 0.96875q-3.171875 0 -5.65625 -1.34375q-2.46875 -1.359375 -3.859375 -3.875q-1.390625 -2.515625 -1.390625 -5.875q0 -3.359375 1.375 -5.875q1.375 -2.515625 3.84375 -3.859375q2.484375 -1.359375 5.6875 -1.359375q3.125 0 5.5625 1.3125q2.4375 1.3125 3.8125 3.75q1.375 2.4375 1.375 5.671875zm-6.765625 -1.734375q0 -1.703125 -1.171875 -2.703125q-1.15625 -1.0 -2.890625 -1.0q-1.65625 0 -2.796875 0.96875q-1.140625 0.953125 -1.421875 2.734375l8.28125 0zm22.26535 7.265625l0 5.609375l-3.359375 0q-3.609375 0 -5.625 -1.75q-2.0 -1.765625 -2.0 -5.75l0 -8.578125l-2.625 0l0 -5.484375l2.625 0l0 -5.265625l6.609375 0l0 5.265625l4.328125 0l0 5.484375l-4.328125 0l0 8.65625q0 0.96875 0.46875 1.390625q0.46875 0.421875 1.546875 0.421875l2.359375 0zm2.3506775 -5.21875q0 -3.3125 1.25 -5.828125q1.265625 -2.515625 3.421875 -3.859375q2.171875 -1.359375 4.84375 -1.359375q2.28125 0 4.0 0.921875q1.71875 0.921875 2.640625 2.4375l0 -3.046875l6.609375 0l0 21.5625l-6.609375 0l0 -3.046875q-0.953125 1.5 -2.6875 2.4375q-1.71875 0.921875 -4.0 0.921875q-2.625 0 -4.796875 -1.375q-2.15625 -1.375 -3.421875 -3.90625q-1.25 -2.53125 -1.25 -5.859375zm16.15625 0.046875q0 -2.484375 -1.375 -3.90625q-1.359375 -1.4375 -3.328125 -1.4375q-1.984375 0 -3.359375 1.421875q-1.359375 1.40625 -1.359375 3.875q0 2.484375 1.359375 3.9375q1.375 1.4375 3.359375 1.4375q1.96875 0 3.328125 -1.421875q1.375 -1.4375 1.375 -3.90625zm18.013214 -17.828125l0 28.609375l-6.609375 0l0 -28.609375l6.609375 0z" fill-rule="nonzero"/></g></svg>