<svg version="1.1" viewBox="0.0 0.0 311.9527559055118 323.5590551181102" fill="none" stroke="none" stroke-linecap="square" stroke-miterlimit="10" xmlns:xlink="http://www.w3.org/1999/xlink" xmlns="http://www.w3.org/2000/svg"><clipPath id="p.0"><path d="m0 0l311.95276 0l0 323.55905l-311.95276 0l0 -323.55905z" clip-rule="nonzero"/></clipPath><g clip-path="url(#p.0)"><path fill="#000000" fill-opacity="0.0" d="m0 0l311.95276 0l0 323.55905l-311.95276 0z" fill-rule="evenodd"/><path fill="#ffffff" d="m8.346445 134.26076l0 0c19.090788 -81.28587 100.46216 -131.70496 181.74803 -112.61417l0 0c39.03485 9.167719 72.82907 33.466488 93.94833 67.55086c21.119263 34.084366 27.833557 75.16232 18.665833 114.197174l0 0c-19.09079 81.28589 -100.46216 131.70496 -181.74803 112.61417l0 0c-81.28587 -19.09079 -131.70496 -100.46214 -112.614174 -181.74803z" fill-rule="evenodd"/><path stroke="#0180c9" stroke-width="4.0" stroke-linejoin="round" stroke-linecap="butt" d="m8.346445 134.26076l0 0c19.090788 -81.28587 100.46216 -131.70496 181.74803 -112.61417l0 0c39.03485 9.167719 72.82907 33.466488 93.94833 67.55086c21.119263 34.084366 27.833557 75.16232 18.665833 114.197174l0 0c-19.09079 81.28589 -100.46216 131.70496 -181.74803 112.61417l0 0c-81.28587 -19.09079 -131.70496 -100.46214 -112.614174 -181.74803z" fill-rule="evenodd"/><path fill="#0180c9" d="m270.44226 234.34752c-23.598175 41.380264 -67.62256 66.87697 -115.258514 66.75191c-47.63595 -0.12506104 -91.52584 -25.85257 -114.90642 -67.356155l115.25371 -64.926865z" fill-rule="evenodd"/><path stroke="#0180c9" stroke-width="16.0" stroke-linejoin="round" stroke-linecap="butt" d="m270.44226 234.34752c-23.598175 41.380264 -67.62256 66.87697 -115.258514 66.75191c-47.63595 -0.12506104 -91.52584 -25.85257 -114.90642 -67.356155l115.25371 -64.926865z" fill-rule="evenodd"/><path fill="#ffffff" d="m28.470936 150.65475l250.29921 0l0 84.566925l-250.29921 0z" fill-rule="evenodd"/><path stroke="#ffffff" stroke-width="1.0" stroke-linejoin="round" stroke-linecap="butt" d="m28.470936 150.65475l250.29921 0l0 84.566925l-250.29921 0z" fill-rule="evenodd"/><path fill="#000000" fill-opacity="0.0" d="m3.106096 70.40845l305.3543 0l0 126.04724l-305.3543 0z" fill-rule="evenodd"/><path fill="#022e51" d="m43.334045 167.99532l-11.296875 0l-2.156248 6.453125l-6.84375 0l11.640623 -31.28125l5.96875 0l11.71875 31.28125l-6.859375 0l-2.171875 -6.453125zm-9.5625 -5.21875l7.828125 0l-3.9375 -11.703125l-3.890625 11.703125zm25.777344 -11.578125l0.203125 2.6875q2.484375 -3.109375 6.671875 -3.109375q3.703125 0 5.5 2.171875q1.8125 2.15625 1.859375 6.484375l0 15.015625l-6.21875 0l0 -14.875q0 -1.96875 -0.859375 -2.859375q-0.859375 -0.890625 -2.859375 -0.890625q-2.609375 0 -3.921875 2.234375l0 16.390625l-6.21875 0l0 -23.25l5.84375 0zm32.408203 23.25q-0.4375 -0.84375 -0.625 -2.078125q-2.25 2.515625 -5.859375 2.515625q-3.421875 0 -5.671875 -1.984375q-2.234375 -1.984375 -2.234375 -4.984375q0 -3.703125 2.734375 -5.671875q2.734375 -1.984375 7.921875 -2.0l2.84375 0l0 -1.328125q0 -1.609375 -0.828125 -2.578125q-0.8125 -0.96875 -2.609375 -0.96875q-1.5625 0 -2.453125 0.75q-0.890625 0.75 -0.890625 2.0625l-6.203125 0q0 -2.015625 1.234375 -3.734375q1.25 -1.71875 3.53125 -2.6875q2.28125 -0.984375 5.109375 -0.984375q4.296875 0 6.8125 2.15625q2.53125 2.15625 2.53125 6.0625l0 10.078125q0.03125 3.3125 0.921875 5.015625l0 0.359375l-6.265625 0zm-5.140625 -4.3125q1.375 0 2.53125 -0.609375q1.171875 -0.625 1.71875 -1.65625l0 -4.0l-2.3125 0q-4.65625 0 -4.96875 3.234375l-0.015625 0.359375q0 1.15625 0.8125 1.921875q0.8125 0.75 2.234375 0.75zm21.808594 4.3125l-6.234375 0l0 -33.0l6.234375 0l0 33.0zm13.791016 -8.78125l4.296875 -14.46875l6.65625 0l-9.34375 26.859375l-0.515625 1.21875q-2.078125 4.5625 -6.875 4.5625q-1.34375 0 -2.75 -0.40625l0 -4.703125l0.953125 0.015625q1.765625 0 2.625 -0.546875q0.875 -0.53125 1.375 -1.765625l0.71875 -1.921875l-8.140625 -23.3125l6.6875 0l4.3125 14.46875zm20.835938 -20.1875l0 5.71875l3.984375 0l0 4.5625l-3.984375 0l0 11.59375q0 1.296875 0.5 1.859375q0.5 0.546875 1.890625 0.546875q1.03125 0 1.828125 -0.140625l0 4.703125q-1.828125 0.5625 -3.765625 0.5625q-6.53125 0 -6.65625 -6.609375l0 -12.515625l-3.390625 0l0 -4.5625l3.390625 0l0 -5.71875l6.203125 0zm13.9921875 28.96875l-6.234375 0l0 -23.25l6.234375 0l0 23.25zm-6.59375 -29.265625q0 -1.390625 0.9375 -2.296875q0.9375 -0.90625 2.546875 -0.90625q1.578125 0 2.515625 0.90625q0.953125 0.90625 0.953125 2.296875q0 1.421875 -0.953125 2.328125q-0.953125 0.890625 -2.53125 0.890625q-1.5625 0 -2.515625 -0.890625q-0.953125 -0.90625 -0.953125 -2.328125zm21.36914 24.6875q1.71875 0 2.796875 -0.9375q1.078125 -0.953125 1.125 -2.515625l5.8125 0q-0.015625 2.359375 -1.28125 4.328125q-1.265625 1.96875 -3.46875 3.0625q-2.203125 1.078125 -4.875 1.078125q-4.984375 0 -7.859375 -3.171875q-2.875 -3.171875 -2.875 -8.765625l0 -0.40625q0 -5.375 2.859375 -8.5625q2.859375 -3.203125 7.84375 -3.203125q4.359375 0 6.984375 2.484375q2.640625 2.46875 2.671875 6.59375l-5.8125 0q-0.046875 -1.796875 -1.125 -2.921875q-1.078125 -1.140625 -2.828125 -1.140625q-2.171875 0 -3.28125 1.59375q-1.109375 1.578125 -1.109375 5.109375l0 0.65625q0 3.578125 1.09375 5.15625q1.09375 1.5625 3.328125 1.5625zm25.867188 -1.84375q0 -1.140625 -1.125 -1.796875q-1.125 -0.65625 -3.609375 -1.171875q-8.296875 -1.734375 -8.296875 -7.046875q0 -3.09375 2.5625 -5.15625q2.5625 -2.078125 6.71875 -2.078125q4.421875 0 7.078125 2.078125q2.65625 2.078125 2.65625 5.421875l-6.21875 0q0 -1.34375 -0.859375 -2.203125q-0.859375 -0.875 -2.6875 -0.875q-1.5625 0 -2.421875 0.71875q-0.859375 0.703125 -0.859375 1.796875q0 1.03125 0.96875 1.671875q0.984375 0.625 3.296875 1.09375q2.328125 0.453125 3.921875 1.03125q4.921875 1.8125 4.921875 6.25q0 3.1875 -2.734375 5.15625q-2.71875 1.96875 -7.046875 1.96875q-2.921875 0 -5.1875 -1.046875q-2.265625 -1.046875 -3.5625 -2.859375q-1.28125 -1.8125 -1.28125 -3.921875l5.890625 0q0.078125 1.65625 1.21875 2.546875q1.140625 0.875 3.046875 0.875q1.796875 0 2.703125 -0.671875q0.90625 -0.6875 0.90625 -1.78125zm27.845703 1.25l13.6875 0l0 5.171875l-20.125 0l0 -31.28125l6.4375 0l0 26.109375zm30.451172 5.171875q-0.4375 -0.84375 -0.625 -2.078125q-2.25 2.515625 -5.859375 2.515625q-3.421875 0 -5.671875 -1.984375q-2.234375 -1.984375 -2.234375 -4.984375q0 -3.703125 2.734375 -5.671875q2.734375 -1.984375 7.921875 -2.0l2.84375 0l0 -1.328125q0 -1.609375 -0.828125 -2.578125q-0.8125 -0.96875 -2.609375 -0.96875q-1.5625 0 -2.453125 0.75q-0.890625 0.75 -0.890625 2.0625l-6.203125 0q0 -2.015625 1.234375 -3.734375q1.25 -1.71875 3.53125 -2.6875q2.28125 -0.984375 5.109375 -0.984375q4.296875 0 6.8125 2.15625q2.5312805 2.15625 2.5312805 6.0625l0 10.078125q0.03125 3.3125 0.921875 5.015625l0 0.359375l-6.2656555 0zm-5.140625 -4.3125q1.375 0 2.53125 -0.609375q1.171875 -0.625 1.71875 -1.65625l0 -4.0l-2.3125 0q-4.65625 0 -4.96875 3.234375l-0.015625 0.359375q0 1.15625 0.8125 1.921875q0.8125 0.75 2.234375 0.75zm36.19925 -7.09375q0 5.578125 -2.390625 8.71875q-2.375 3.125 -6.65625 3.125q-3.78125 0 -6.03125 -2.90625l-0.28125 2.46875l-5.578125 0l0 -33.0l6.203125 0l0 11.84375q2.15625 -2.515625 5.65625 -2.515625q4.25 0 6.65625 3.125q2.421875 3.125 2.421875 8.796875l0 0.34375zm-6.203125 -0.453125q0 -3.53125 -1.125 -5.140625q-1.109375 -1.625 -3.328125 -1.625q-2.953125 0 -4.078125 2.421875l0 9.171875q1.140625 2.453125 4.125 2.453125q3.015625 0 3.953125 -2.96875q0.453125 -1.40625 0.453125 -4.3125z" fill-rule="nonzero"/><path fill="#0180c9" d="m282.78082 54.33948l0 0c1.782959 -4.9053345 7.204895 -7.436512 12.1102295 -5.6535454l0 0c2.3556213 0.8562126 4.274658 2.613121 5.3349 4.8842316c1.0602417 2.2711105 1.1748657 4.8703804 0.31863403 7.2260056l0 0c-1.782959 4.9053345 -7.204895 7.436508 -12.1102295 5.6535416l0 0c-4.9053345 -1.7829666 -7.436493 -7.2049026 -5.653534 -12.110233z" fill-rule="evenodd"/><path stroke="#0180c9" stroke-width="1.0" stroke-linejoin="round" stroke-linecap="butt" d="m282.78082 54.33948l0 0c1.782959 -4.9053345 7.204895 -7.436512 12.1102295 -5.6535454l0 0c2.3556213 0.8562126 4.274658 2.613121 5.3349 4.8842316c1.0602417 2.2711105 1.1748657 4.8703804 0.31863403 7.2260056l0 0c-1.782959 4.9053345 -7.204895 7.436508 -12.1102295 5.6535416l0 0c-4.9053345 -1.7829666 -7.436493 -7.2049026 -5.653534 -12.110233z" fill-rule="evenodd"/><path fill="#0180c9" d="m246.68999 13.147086l0 0c2.8701324 -7.8450522 11.556534 -11.8780155 19.401566 -9.007874l0 0c3.767334 1.3782907 6.8328247 4.196695 8.522156 7.835196c1.6893005 3.6385012 1.8640137 7.7990522 0.48571777 11.566379l0 0c-2.8701477 7.8450527 -11.556519 11.878017 -19.401566 9.007874l0 0c-7.845047 -2.87014 -11.878021 -11.55652 -9.007874 -19.401573z" fill-rule="evenodd"/><path stroke="#0180c9" stroke-width="1.0" stroke-linejoin="round" stroke-linecap="butt" d="m246.68999 13.147086l0 0c2.8701324 -7.8450522 11.556534 -11.8780155 19.401566 -9.007874l0 0c3.767334 1.3782907 6.8328247 4.196695 8.522156 7.835196c1.6893005 3.6385012 1.8640137 7.7990522 0.48571777 11.566379l0 0c-2.8701477 7.8450527 -11.556519 11.878017 -19.401566 9.007874l0 0c-7.845047 -2.87014 -11.878021 -11.55652 -9.007874 -19.401573z" fill-rule="evenodd"/><path fill="#0180c9" d="m263.19345 43.167477l0 0c1.0784607 -2.9397202 4.335846 -4.448559 7.2755737 -3.370079l0 0c1.4117126 0.5179024 2.559845 1.5753899 3.191864 2.939827c0.63201904 1.3644371 0.6961365 2.924057 0.17822266 4.335762l0 0c-1.0784912 2.9397202 -4.3358765 4.448555 -7.2756042 3.370079l0 0c-2.9396973 -1.078476 -4.4485474 -4.335869 -3.3700562 -7.275589z" fill-rule="evenodd"/><path stroke="#0180c9" stroke-width="1.0" stroke-linejoin="round" stroke-linecap="butt" d="m263.19345 43.167477l0 0c1.0784607 -2.9397202 4.335846 -4.448559 7.2755737 -3.370079l0 0c1.4117126 0.5179024 2.559845 1.5753899 3.191864 2.939827c0.63201904 1.3644371 0.6961365 2.924057 0.17822266 4.335762l0 0c-1.0784912 2.9397202 -4.3358765 4.448555 -7.2756042 3.370079l0 0c-2.9396973 -1.078476 -4.4485474 -4.335869 -3.3700562 -7.275589z" fill-rule="evenodd"/><path fill="#0180c9" d="m97.37812 206.5795c-0.02433014 0 -0.05190277 0.0051116943 -0.081100464 0.015350342c-0.12651825 0.045578003 -0.18086243 0.1485138 -0.108680725 0.21711731c0.08678436 0.09013367 0.1605835 0.13417053 0.21492004 0.13417053c0.07056427 0 0.1111145 -0.07270813 0.1111145 -0.2140503c0 -0.09677124 -0.053527832 -0.15258789 -0.13625336 -0.15258789zm-0.2757492 0.68821716c-0.2919693 0 -0.5085068 0.4516449 -0.42092133 0.8930664c0.036499023 0.2283783 -0.108673096 0.29699707 -0.7055893 0.33129883c-0.61557007 0.045578003 -0.706398 0.07989502 -0.47120667 0.25143433c0.14517212 0.11419678 0.48905182 0.20585632 0.77858734 0.20585632c0.28953552 0 0.59690857 0.068618774 0.68774414 0.14849854c0.05758667 0.07322693 0.15084839 0.10958862 0.23195648 0.10958862c0.020271301 0 0.039741516 -0.0020599365 0.05757904 -0.006668091c0.0721817 -0.034301758 0.47039795 -0.14849854 0.88726044 -0.25141907c0.43389893 -0.12597656 0.72424316 -0.30877686 0.72424316 -0.45729065c0 -0.1618042 -0.11354065 -0.25193787 -0.25466156 -0.25193787c-0.09812927 0 -0.21005249 0.044036865 -0.30656433 0.13775635c-0.09894562 0.09729004 -0.19626617 0.14286804 -0.28061676 0.14286804c-0.16301727 0 -0.28060913 -0.16949463 -0.28060913 -0.46292114c-0.01865387 -0.5028534 -0.18086243 -0.7312317 -0.61557007 -0.7885895c-0.010543823 -0.0010223389 -0.021087646 -0.0015411377 -0.03163147 -0.0015411377zm-19.04689 9.54454c0.12651825 0 0.23519897 0.057357788 0.23519897 0.13723755c0 0.07987976 -0.054336548 0.14849854 -0.108680725 0.14849854c-0.054336548 0 -0.16300964 -0.068618774 -0.23519135 -0.14849854c-0.0721817 -0.07987976 -0.036499023 -0.13723755 0.108673096 -0.13723755zm101.93675 7.6908264c-0.035690308 0 -0.06326294 0.11419678 -0.06326294 0.30981445c0 0.19151306 0.026763916 0.30519104 0.060821533 0.30519104c0.015411377 0 0.03163147 -0.020996094 0.047851562 -0.06555176c0.054336548 -0.13722229 0.054336548 -0.35435486 0 -0.4910736c-0.015411377 -0.03993225 -0.03163147 -0.058380127 -0.045410156 -0.058380127zm2.7453156 -3.3945312c-8.087158E-4 0 -0.0016174316 0 -0.003250122 0.0010223389c-0.07217407 0.034317017 -0.18086243 1.0630646 -0.2530365 2.2746277c-0.09083557 1.2110596 -0.18086243 2.297165 -0.23519897 2.4001007c-0.054336548 0.10292053 -0.054336548 0.25141907 0.017837524 0.32003784c0.07461548 0.076293945 0.13949585 0.11828613 0.19465637 0.11828613c0.22627258 0 0.3049469 -0.69692993 0.34873962 -2.5869904c0.017837524 -1.4010315 -0.017028809 -2.5270844 -0.069747925 -2.5270844zm-2.7428894 4.5016327c-0.029190063 0 -0.047851562 0.17564392 -0.047851562 0.4823761c0 0.30725098 0.018661499 0.4828949 0.047851562 0.4828949c0.0129852295 0 0.026763916 -0.030731201 0.04298401 -0.09422302c0.054336548 -0.20585632 0.054336548 -0.5602112 0 -0.7773285c-0.016220093 -0.06350708 -0.02999878 -0.09371948 -0.04298401 -0.09371948zm-0.012969971 1.4046326c-0.04298401 0 -0.07055664 0.0809021 -0.07055664 0.22070312c0 0.13978577 0.027572632 0.22070312 0.07055664 0.22070312c0.017028809 0 0.035690308 -0.012298584 0.05595398 -0.037902832c0.054336548 -0.10292053 0.054336548 -0.2626953 0 -0.36561584c-0.020263672 -0.025604248 -0.03892517 -0.037887573 -0.05595398 -0.037887573zm-94.25149 -1.6309662c0.14517212 0 0.2530365 0.12597656 0.2530365 0.28573608c0 0.14901733 0.108680725 0.28573608 0.21735382 0.28573608c0.12651825 0 0.23519897 -0.068099976 0.23519897 -0.14849854c0 -0.08859253 0.24168396 -0.13415527 0.53284454 -0.13415527c0.27249908 0 0.5879898 0.03993225 0.78912354 0.12289429c0.21735382 0.07987976 0.23519897 0.14849854 0.054336548 0.21711731c-0.12732697 0.057357788 -0.2538452 0.19407654 -0.2538452 0.3200531c0 0.09933472 0.021896362 0.14797974 0.08434296 0.14797974c0.053527832 0 0.13543701 -0.034301758 0.2595291 -0.10241699c0.15652466 -0.0809021 0.28142548 -0.117263794 0.370636 -0.117263794c0.19950867 0 0.2165451 0.18331909 -0.008110046 0.46035767c-0.16301727 0.19407654 -0.23600769 0.42297363 -0.14517212 0.5028534c0.09083557 0.091156006 0.036491394 0.2626953 -0.108680725 0.3768921c-0.19464111 0.1469574 -0.41362 0.2130127 -0.62448883 0.2130127c-0.49634552 0 -0.95051575 -0.36509705 -0.95051575 -0.9099426c0 -0.20585632 -0.1443634 -0.45729065 -0.3252182 -0.57147217c-0.43471527 -0.2744751 -0.70640564 -0.94888306 -0.3803711 -0.94888306zm4.578224 2.147644c0.26439667 0 0.6528778 0.1413269 0.6528778 0.27549744c0 0.07987976 -0.1443634 0.14849854 -0.32603455 0.14849854c-0.36171722 0 -0.7055893 -0.2626953 -0.50688934 -0.38867188c0.043792725 -0.02456665 0.107055664 -0.035324097 0.18004608 -0.035324097zm89.68704 0.45368958c-0.02999878 0 -0.04866028 0.1418457 -0.04866028 0.39328003c0 0.25091553 0.018661499 0.39839172 0.047851562 0.39839172c0.0129852295 0 0.026763916 -0.025100708 0.04298401 -0.07835388c0.054336548 -0.1715393 0.054336548 -0.46853638 0 -0.64009094c-0.016220093 -0.04966736 -0.02999878 -0.07322693 -0.042175293 -0.07322693zm2.8742676 -10.846741c0.45742798 0 0.5425873 0.068115234 0.58880615 0.3594818c0.1630249 0.89152527 0.054336548 1.3144836 -0.4703827 1.7830353c-0.39822388 0.36561584 -0.39822388 0.42297363 -0.09083557 0.64009094c0.30818176 0.21711731 0.34387207 1.1199036 0.3625183 6.8914948c0.014602661 4.9809265 -0.07136536 6.983139 -0.33413696 6.983139c-0.051101685 0 -0.108673096 -0.07476807 -0.17274475 -0.21711731c-0.07299805 -0.14849854 -0.108688354 -0.7655487 -0.07299805 -1.3825989c0.018661499 -0.6175537 -0.07217407 -1.1316833 -0.19869995 -1.1772614c-0.12652588 -0.034301758 -0.108673096 -0.10292053 0.054336548 -0.14849854c0.39820862 -0.11470032 0.36172485 -0.62882996 -0.054336548 -0.62882996c-0.271698 0 -0.30737305 0.25143433 -0.271698 1.4973145c0.036499023 0.82289124 -0.017837524 1.611496 -0.108673096 1.7487183c-0.003250122 0.006668091 -0.007293701 0.009735107 -0.010543823 0.009735107c-0.07055664 0 -0.15246582 -1.224884 -0.15246582 -2.821518c-0.017028809 -1.6452942 0.05189514 -2.9618378 0.12246704 -2.9618378c0.0016174316 0 0.0032348633 5.0354004E-4 0.004852295 0.0020446777c0.090026855 0.045578003 0.18086243 0.5596924 0.19869995 1.1311646c0.03730774 0.8812866 0.06651306 1.2100372 0.15734863 1.2100372c0.041366577 0 0.09489441 -0.067596436 0.16868591 -0.18127441c0.27331543 -0.37739563 0.2887268 -1.1516571 0.04623413 -1.1516571c-0.014602661 0 -0.030014038 0.0030822754 -0.04623413 0.008712769c-0.03730774 0.019454956 -0.07461548 0.028167725 -0.107055664 0.028167725c-0.06324768 0 -0.11029053 -0.03277588 -0.11029053 -0.08552551c0 -0.07987976 0.108673096 -0.14849854 0.21734619 -0.14849854c0.32603455 0 0.28953552 -0.62831116 -0.054336548 -0.85720825c-0.13624573 -0.09320068 -0.18734741 -0.13673401 -0.15246582 -0.13673401c0.020263672 0 0.07136536 0.015365601 0.15246582 0.045578003c0.036499023 0.013320923 0.06893921 0.020492554 0.09812927 0.020492554c0.14112854 0 0.19140625 -0.17001343 0.19140625 -0.5694275c0 -0.49108887 -0.09083557 -0.6513672 -0.34387207 -0.6513672c-0.28953552 0 -0.32603455 0.10293579 -0.21736145 0.48033142c0.09083557 0.28573608 0.054351807 0.5253906 -0.0900116 0.58273315c-0.003250122 0.0010223389 -0.0056762695 0.0015411377 -0.008117676 0.0015411377c-0.14030457 0 -0.22789001 -1.4778442 -0.2457428 -4.5958557c-0.017837524 -2.57164 -0.054336548 -4.9031067 -0.07217407 -5.177582c-0.036499023 -0.4572754 0 -0.4915924 0.7420807 -0.5253906c0.10624695 -0.0035705566 0.19869995 -0.005630493 0.27980042 -0.005630493zm-30.418243 -15.331985c-0.70640564 0 -1.7558746 0.5484314 -1.7558746 0.9253082c0 0.13723755 -0.19950867 0.21713257 -0.52471924 0.21713257c-0.3803711 0 -0.61557007 0.13722229 -0.88726807 0.53715515c-0.34387207 0.5259094 -0.45254517 0.80036926 -0.85076904 2.0344696c-0.4703827 1.4860382 -0.7785797 1.908493 -1.4663239 2.0232086c-0.34387207 0.05683899 -0.72424316 0.1828003 -0.81427 0.28573608c-0.30818176 0.32003784 -0.47120667 2.7426605 -0.27168274 4.3884583l0.18084717 1.6227722l-0.61557007 0.13723755c-0.41604614 0.091659546 -0.6512451 0.25141907 -0.66989136 0.4460144c-0.017852783 0.17102051 -0.090026855 3.6915283 -0.16221619 7.8173065l-0.14517212 7.4972687l-0.95944214 0.045578003c-0.09651184 0.0040893555 -0.18734741 0.006149292 -0.27331543 0.006149292c-0.41281128 0 -0.6861267 -0.044555664 -0.6861267 -0.12034607c0 -0.07987976 -0.2530365 -0.14849854 -0.56121826 -0.14849854c-0.45256042 0 -0.57907104 -0.068618774 -0.57907104 -0.3313141c0 -0.1715393 -0.108688354 -0.38865662 -0.23519897 -0.48031616c-0.14517212 -0.091156006 -0.271698 -0.8454437 -0.28953552 -1.8055725c-0.036499023 -1.4286957 -0.09083557 -1.6801147 -0.45256042 -1.8516693c-0.34387207 -0.15975952 -0.43470764 -0.43423462 -0.5068817 -1.7712555c-0.07218933 -1.4860382 -0.054336548 -1.5889587 0.3617096 -1.657074c0.41687012 -0.068618774 0.45256042 -0.20585632 0.45256042 -2.0800323c0 -1.0973816 -0.07218933 -2.1030884 -0.1443634 -2.229065c-0.081100464 -0.13365173 -0.1532898 -0.19970703 -0.21736145 -0.19970703c-0.20924377 0 -0.3260193 0.70614624 -0.3260193 2.0626373c0 1.1772461 -0.07218933 1.9202728 -0.21736145 1.9202728c-0.1443634 0 -0.23519897 -0.64009094 -0.23519897 -1.611496c-0.017837524 -2.2858887 -0.18086243 -2.7201385 -1.3576508 -3.3945312c-0.64556885 -0.37739563 -1.1532745 -0.5632782 -1.6423187 -0.5632782c-0.42903137 0 -0.84347534 0.14337158 -1.3260345 0.42604065c-0.41604614 0.24015808 -1.0316162 0.54893494 -1.3754883 0.6743927c-0.43470764 0.17155457 -0.6334076 0.35435486 -0.6334076 0.6170502c0 0.20585632 -0.09083557 0.57147217 -0.23600769 0.80036926c-0.12652588 0.23965454 -0.2530365 1.7369537 -0.27088928 3.3484497c-0.051086426 2.4958496 -0.08596802 2.8732452 -0.37306213 2.8732452c-0.019470215 0 -0.039749146 -0.0015258789 -0.061645508 -0.0046081543c-0.03567505 -0.0030670166 -0.06893921 -0.0051116943 -0.10057068 -0.0051116943c-0.39901733 0 -0.4736328 0.313385 -0.64151 2.0508423c-0.21736145 2.1030884 -0.34387207 2.5030212 -0.7964325 2.5030212c-0.3617096 0 -0.39820862 -0.5371704 -0.43470764 -7.8746643c-0.03567505 -4.3311157 -0.090026855 -7.9427795 -0.1443634 -8.034439c-0.16462708 -0.25961304 -0.4963379 -0.39378357 -0.9221344 -0.39378357c-0.23033142 0 -0.48823547 0.03942871 -0.7615509 0.11982727c-0.33088684 0.10446167 -0.51986694 0.15873718 -0.65854645 0.15873718c-0.14923096 0 -0.24087524 -0.06297302 -0.39091492 -0.19303894c-0.16301727 -0.14901733 -0.32602692 -0.5602112 -0.3446808 -0.925827c-0.053527832 -1.0287628 -0.0721817 -1.1199188 -0.25304413 -1.2346191c-0.09083557 -0.05683899 -0.16301727 -0.23965454 -0.16301727 -0.39993286c0 -0.15975952 -0.21735382 -0.7773285 -0.47039032 -1.3713226c-0.4525528 -1.0630646 -0.68775177 -1.7374725 -1.1046143 -3.3602295c-0.12651825 -0.46855164 -0.3252182 -1.1086426 -0.41605377 -1.4286804l-0.19869995 -0.57147217l-0.1273346 0.43423462c-0.090019226 0.2288971 -0.27088165 1.0400238 -0.39820862 1.7830353c-0.1443634 0.74302673 -0.36171722 1.6457977 -0.47039795 2.0001526c-0.12651825 0.35435486 -0.3803711 1.0973816 -0.5612259 1.645813c-0.34387207 0.9944458 -1.0681152 2.1373901 -1.4663315 2.2858887c-0.12651825 0.045578003 -0.21735382 0.34259033 -0.21735382 0.6513672c0 0.39993286 -0.090026855 0.5602112 -0.34387207 0.5602112c-0.18086243 0 -0.3438797 -0.068618774 -0.3438797 -0.13723755c0 -0.08039856 -0.090019226 -0.14849854 -0.21735382 -0.14849854c-0.12651825 0 -0.23519135 0.09114075 -0.23519135 0.20533752c0 0.10292053 -0.23519897 0.2288971 -0.5247345 0.2744751c-0.72424316 0.11418152 -0.81427 0.41119385 -0.81427 2.4912262l-0.01865387 1.7487335l-1.6285324 -0.09114075c-0.9051056 -0.0460968 -2.136238 -0.12597656 -2.7331467 -0.19459534c-0.23844147 -0.02508545 -0.45093536 -0.037887573 -0.6390915 -0.037887573c-0.7420883 0 -1.098938 0.19918823 -1.098938 0.60935974c0 0.13723755 -0.1808548 0.29751587 -0.39820862 0.34309387c-0.36171722 0.068618774 -0.39821625 0.32003784 -0.32603455 3.0970154c0.036499023 1.6688538 -0.017837524 3.0744934 -0.108673096 3.1431122c-0.064888 0.033798218 -0.32846832 0.05581665 -0.685318 0.05581665c-0.24087524 0 -0.5247345 -0.009735107 -0.8167038 -0.03277588c-1.285469 -0.08039856 -1.3219681 -0.091659546 -1.1767883 -0.4572754c0.43470764 -1.0856018 0.41605377 -1.1086426 -0.25304413 -1.1885223c-0.21248627 -0.026626587 -0.3811798 -0.041488647 -0.5141907 -0.041488647c-0.3909073 0 -0.48174286 0.12904358 -0.48174286 0.48698425c0 0.5371704 -0.43470764 0.85720825 -1.2311325 0.90278625l-0.68775177 0.046081543l-0.16301727 -1.1429443c-0.0721817 -0.62882996 -0.090019226 -1.2571411 -0.03568268 -1.3831024c0.054336548 -0.13723755 0.12651825 -2.5598602 0.16301727 -5.3829193l0.03568268 -5.143265l-0.5612259 -0.068618774c-0.049476624 -0.005630493 -0.10462189 -0.008712769 -0.16301727 -0.008712769c-0.59935 0 -1.5701447 0.29751587 -1.3390045 0.4434662c0.01865387 0.011764526 0.047851562 0.017410278 0.08354187 0.017410278c0.10056305 0 0.2538452 -0.044555664 0.38685608 -0.12034607c0.030815125 -0.01586914 0.058395386 -0.025604248 0.08434296 -0.025604248c0.23357391 0 0.27980804 0.77989197 0.29602814 4.619934c0 2.6172028 0.054336548 6.674362 0.108673096 9.017609l0.090026855 4.251236l-2.0454025 0l-0.03568268 -3.188675c-0.036499023 -3.1999512 -0.054344177 -3.6572418 -0.1273346 -5.4284973c-0.054336548 -0.85720825 -0.10786438 -0.96014404 -0.5060806 -0.96014404c-0.38036346 0 -0.45254517 -0.10292053 -0.4890442 -0.6057739l-0.036499023 -0.6057892l-0.16300964 0.64009094c-0.012168884 0.050186157 -0.02433014 0.07476807 -0.035690308 0.07476807c-0.07299042 0 -0.12408447 -0.9514313 -0.108673096 -2.4292755c0.017837524 -1.7144318 -0.0721817 -3.3028717 -0.21735382 -3.7140656l-0.23519897 -0.71998596l-0.1808548 0.6052704c-0.1273346 0.45729065 -0.28953552 0.61756897 -0.5977249 0.61756897c-0.271698 0 -0.4160614 -0.10293579 -0.3803711 -0.25143433c0.01865387 -0.13723755 0 -0.6175537 -0.017845154 -1.0517883l-0.036499023 -0.7998657l-0.6690903 0.068618774c-0.15409851 0.013824463 -0.27412415 0.023040771 -0.3673935 0.023040771c-0.28953552 0 -0.32035828 -0.08909607 -0.32035828 -0.4004364c0 -0.30827332 0.10787201 -0.44551086 0.3438797 -0.44551086c0.1808548 0 0.34387207 -0.10292053 0.34387207 -0.21711731c0 -0.11317444 -0.06326294 -0.16181946 -0.2368164 -0.16181946c-0.08921814 0 -0.20762634 0.012802124 -0.3609085 0.035858154c-0.1313858 0.019958496 -0.24492645 0.030212402 -0.34549713 0.030212402c-0.24249268 0 -0.40550995 -0.060424805 -0.55960846 -0.18998718c-0.13624573 -0.11930847 -0.23600769 -0.17308044 -0.3446808 -0.17308044c-0.07948303 0 -0.16382599 0.028671265 -0.27088165 0.0814209c-0.120033264 0.060928345 -0.30575562 0.0967865 -0.4793167 0.0967865c-0.08759308 0 -0.17193604 -0.009216309 -0.24411774 -0.028167725c-0.1054306 -0.025604248 -0.18247986 -0.03994751 -0.23438263 -0.03994751c-0.10787201 0 -0.10543823 0.060943604 -0.019470215 0.20022583c0.09083557 0.13723755 0.054344177 0.6513519 -0.090019226 1.1311646c-0.14517212 0.48033142 -0.271698 1.0630646 -0.3081894 1.3032379c-0.036499023 0.2283783 -0.0721817 0.5028534 -0.090026855 0.6057739c-0.01865387 0.10241699 -0.19950867 0.18281555 -0.3803711 0.18281555c-0.4168625 0 -0.4168625 -0.19459534 0.017845154 -0.9376068c0.24168396 -0.43629456 0.33657837 -0.6293335 0.28142548 -0.6293335c-0.036499023 0 -0.13544464 0.08140564 -0.29927063 0.22940063c-0.79642487 0.7317505 -1.0859604 1.9202728 -1.24897 5.40596c-0.108680725 2.0918274 -0.3081894 3.9317017 -0.54338837 4.70903c-0.19869995 0.7081909 -0.41605377 2.308426 -0.48823547 3.565567c-0.054336548 1.2458801 -0.16301727 2.3202057 -0.21735382 2.3888245c-0.039741516 0.031234741 -0.12895203 0.04864502 -0.23682404 0.04864502c-0.08921051 0 -0.1905899 -0.011779785 -0.28791046 -0.037384033c-0.5612259 -0.13723755 -2.2992554 -1.1316833 -2.2992554 -1.3257599c0 -0.07987976 -0.2530365 -0.39993286 -0.59690857 -0.7087097c-0.39821625 -0.38865662 -0.7607422 -0.57147217 -1.1046143 -0.57147217c-0.86860657 0 -1.6836853 -0.2626953 -1.6836853 -0.5371704c0 -0.37687683 -0.4525528 -0.6057739 -1.1759872 -0.6057739c-0.76073456 0 -0.79642487 0.091659546 -0.16301727 0.5146332c0.43389893 0.29699707 0.4525528 0.3768921 0.21736145 1.1199036c-0.28953552 0.8341675 -0.1995163 1.0856018 0.34387207 1.0856018c0.34387207 0 0.41605377 0.4004364 0.1808548 0.9713898c-0.07623291 0.16386414 -0.2165451 0.26219177 -0.35604095 0.26219177c-0.02594757 0 -0.052711487 -0.0030822754 -0.07866669 -0.010757446c-0.021896362 -0.0046081543 -0.043792725 -0.006652832 -0.064071655 -0.006652832c-0.17923737 0 -0.29115295 0.18229675 -0.38848114 0.612442c-0.1808548 0.86898804 -0.27169037 1.0287476 -0.542572 1.0287476c-0.16301727 0 -0.23519897 -1.1542053 -0.23519897 -3.3827515c0 -1.8281097 -0.069747925 -3.2818756 -0.15814972 -3.2818756c-0.0016174316 0 -0.0032424927 5.0354004E-4 -0.0048675537 0.0015258789c-0.108673096 0.057357788 -0.18166351 1.565918 -0.18166351 3.3489685l0 3.234253l-1.3933411 0.045578003l-1.3941498 0.045578003l-0.0721817 -3.88562c-0.054336548 -2.9602966 -0.1443634 -3.908661 -0.36171722 -3.954239c-0.16301727 -0.034301758 -0.28953552 -0.27445984 -0.28953552 -0.54893494c0 -0.5371704 -0.6342163 -1.0512848 -1.3219681 -1.0512848c-0.59690857 0 -0.6699066 -0.10293579 -0.47039032 -0.67440796c0.108673096 -0.32003784 0.45254517 -0.6513519 0.88726044 -0.86846924c0.37955475 -0.18281555 0.68774414 -0.39993286 0.68774414 -0.47981262c0 -0.068618774 -0.36252594 -0.2632141 -0.79642487 -0.43475342c-0.8507614 -0.30827332 -1.0859604 -0.8684845 -0.43470764 -1.028244c0.43470764 -0.11419678 0.19950867 -0.37739563 -0.32603455 -0.37739563c-0.21735382 0 -0.542572 -0.15977478 -0.7055893 -0.35435486c-0.16301727 -0.19407654 -0.39820862 -0.35435486 -0.4890442 -0.35435486c-0.108680725 0 -0.19869995 -0.17103577 -0.19869995 -0.3656311c0 -0.26319885 -0.049476624 -0.34103394 -0.36982727 -0.34103394c-0.06893921 0 -0.15003967 0.0035858154 -0.2457428 0.009735107c-0.47039032 0.034301758 -0.6334076 0.13723755 -0.68774414 0.41119385c-0.054344177 0.19458008 -0.1995163 0.4116974 -0.3438797 0.4915924c-0.14517212 0.07987976 -0.39820862 0.33129883 -0.5612259 0.5601959c-0.23519897 0.34259033 -0.23519897 0.44551086 0 0.5484314c0.13219452 0.06248474 0.17680359 0.091156006 0.12651825 0.091156006c-0.032440186 0 -0.10381317 -0.011779785 -0.21735382 -0.033798218c-0.06650543 -0.013824463 -0.12976074 -0.020477295 -0.1905899 -0.020477295c-0.3544159 0 -0.6163788 0.22991943 -0.78668976 0.7174072c-0.09083557 0.24015808 -0.36171722 0.5602112 -0.57907104 0.7087097c-0.5612335 0.39993286 -0.88726044 0.9944458 -0.88726044 1.6340332c0 0.3430786 -0.1443634 0.6288147 -0.3803711 0.7430115c-0.19869995 0.11419678 -0.57907104 0.4915924 -0.8507614 0.84594727c-0.43389893 0.58273315 -0.47039795 0.94836426 -0.54257965 4.171356l-0.0721817 3.5430298l-0.5977249 0.07987976c-3.240036 0.4460144 -4.760704 1.5316162 -5.1224213 3.6802826c-0.13381958 0.7276459 -0.22141266 0.9299164 -0.47525787 0.9299164c-0.021903992 0 -0.043800354 -0.0015258789 -0.06813049 -0.0040893555c-0.34387207 -0.045578003 -0.37955856 -0.41171265 -0.41605377 -3.6229248c-0.03649521 -4.731552 -0.21735382 -6.4915466 -0.6699066 -6.8115997c-0.19869995 -0.13723755 -0.7055893 -0.3200531 -1.1224556 -0.39993286c-0.68774796 -0.14900208 -0.777771 -0.2288971 -0.79642487 -0.6861725c-0.054340363 -0.95962524 -0.09002304 -1.2341003 -0.28953552 -2.262848c-0.21735382 -1.1429596 -0.28953552 -1.1885223 -2.189766 -1.1885223c-0.5612259 0 -1.1224556 -0.068618774 -1.2676277 -0.1485138c-0.100566864 -0.06655884 -0.22060013 -0.0962677 -0.3414421 -0.0962677c-0.3146782 0 -0.63584137 0.20072937 -0.63584137 0.4731598c0 0.37739563 0.43470764 0.34309387 -6.2270393 0.41171265c-0.9951248 0.011260986 -2.099739 0.10292053 -2.443615 0.19407654c-0.40875626 0.10446167 -0.7883148 0.1561737 -1.058384 0.1561737c-0.2919693 0 -0.45498657 -0.060424805 -0.38929367 -0.17871094c0.04379654 -0.082962036 0.27331543 -0.13569641 0.64395523 -0.13569641c0.09083176 0 0.18977737 0.0030670166 0.29683304 0.009719849c0.17436981 0.009216309 0.31224442 0.013824463 0.4201088 0.013824463c0.30575562 0 0.3568535 -0.04095459 0.24979782 -0.15106201c-0.10867691 -0.11418152 -0.19870377 -0.26268005 -0.19870377 -0.34257507c0 -0.07987976 -0.10867691 -0.13723755 -0.23600769 -0.14849854c-0.12651825 0 -0.45174026 -0.08039856 -0.7420845 -0.1828003c-0.20438004 -0.07322693 -0.47363663 -0.1116333 -0.69667053 -0.1116333c-0.09164429 0 -0.17599106 0.006652832 -0.24411774 0.019958496c-0.36252594 0.068618774 -0.43470764 0.21713257 -0.39821243 0.971405c0.01784134 0.48033142 -0.054336548 1.0175018 -0.14517212 1.1885223c-0.114356995 0.21763611 -0.7064018 0.41223145 -1.0454102 0.41223145c-0.14192963 0 -0.239254 -0.033798218 -0.239254 -0.114715576c0 -0.07220459 -0.016220093 -0.10752869 -0.047039032 -0.10752869c-0.10137558 0 -0.36495972 0.38302612 -0.7680397 1.101471c-0.34387207 0.64009094 -0.75992584 1.0973663 -1.2124786 1.3375244l-0.6699066 0.35435486l-0.054336548 4.0571594c-0.054340363 4.182617 -0.10867691 4.4458313 -0.99512863 4.4458313c-0.27169037 0 -0.32603073 0.937088 -0.32603073 6.3543243l0 6.354309l231.47832 0l-0.054351807 -10.388428l-0.05432129 -10.400726l-0.52474976 -0.6057892c-0.271698 -0.34257507 -0.61557007 -1.0169678 -0.77856445 -1.5198364l-0.271698 -0.90278625l-1.6650391 -0.10292053c-0.3925476 -0.023040771 -0.72262573 -0.036865234 -1.0007935 -0.036865234c-1.2497864 0 -1.4606628 0.28573608 -1.6236877 1.3513641c-0.12649536 0.7199707 -0.34387207 1.1429443 -0.94158936 1.7712555l-0.79641724 0.8116455l0 2.1711884l0 2.171692l-0.778595 -0.091659546c-0.43389893 -0.05683899 -1.1402893 -0.19407654 -1.5741882 -0.30825806l-0.79641724 -0.20585632l0 -1.0400238c0 -0.64009094 -0.12734985 -1.1429443 -0.30819702 -1.3144989c-0.1630249 -0.15975952 -0.37954712 -0.46853638 -0.45254517 -0.6856537c-0.090026855 -0.20585632 -0.25305176 -0.38867188 -0.37957764 -0.38867188c-0.12731934 0 -0.21734619 -0.15975952 -0.21734619 -0.34257507c0 -0.33694458 -0.8167114 -0.86283875 -1.2457275 -0.86283875c-0.0664978 0 -0.123291016 0.012283325 -0.16625977 0.03993225c-0.108673096 0.068618774 -0.2538452 1.6340332 -0.3260193 3.4626465c-0.07220459 1.8403931 -0.21737671 3.474411 -0.30740356 3.6347046c-0.12164307 0.21044922 -0.2935791 0.26882935 -1.1532593 0.26882935c-0.16708374 0 -0.36091614 -0.0025634766 -0.5847473 -0.006149292c-1.7737122 -0.011260986 -2.0997467 -0.09114075 -2.0997467 -0.47981262c0 -0.3005829 -0.75668335 -0.415802 -3.1029816 -0.415802c-0.51013184 0 -1.0964966 0.005630493 -1.7664032 0.0158844l-2.9318542 0.045562744l-0.1273346 0.8572235l-0.108673096 0.85720825l-4.0721436 0l-0.054336548 -5.474579c-0.036499023 -4.720291 0 -5.474579 0.28953552 -5.5431976c0.18084717 -0.045578003 0.3260193 -0.21711731 0.3260193 -0.3768921c0 -0.1469574 -0.062438965 -0.21557617 -0.18652344 -0.21557617c-0.039749146 0 -0.08677673 0.007171631 -0.13949585 0.020996094c-0.021896362 0.0051116943 -0.041366577 0.007675171 -0.060028076 0.007675171c-0.2530365 0 -0.283844 -0.47929382 -0.283844 -2.8189545c0 -1.5884552 -0.07299805 -3.0401917 -0.14518738 -3.222992c-0.108673096 -0.25143433 -0.03567505 -0.34309387 0.34388733 -0.39993286c0.57907104 -0.10293579 0.6155548 -0.30877686 0.108673096 -0.5489502c-0.32603455 -0.14849854 -0.39820862 -0.47981262 -0.43389893 -1.908493c-0.018661499 -1.1429443 -0.1273346 -1.8055725 -0.32603455 -1.94281c-0.19950867 -0.14849854 -0.19950867 -0.21711731 -0.036499023 -0.21711731c0.14517212 0 0.25386047 -0.13723755 0.25386047 -0.28573608c0 -0.16027832 -0.108688354 -0.28573608 -0.23600769 -0.28573608c-0.12652588 0 -0.18086243 -0.12597656 -0.10786438 -0.2744751c0.07865906 -0.15719604 0.06163025 -0.21865845 -0.11842346 -0.21865845c-0.06892395 0 -0.16056824 0.008712769 -0.27980042 0.02458191c-0.053527832 0.006149292 -0.10786438 0.009735107 -0.16220093 0.009735107c-0.33332825 0 -0.6958618 -0.12187195 -1.1776123 -0.38713074c-0.43470764 -0.25141907 -0.9594269 -0.4454956 -1.1581421 -0.4454956c-0.54338074 0 -0.6155548 -0.21713257 -0.2538452 -0.7655487c0.28953552 -0.44602966 0.28953552 -0.58325195 0.017837524 -0.99446106c-0.45173645 -0.6974335 -1.5222778 -1.0820007 -2.925354 -1.0820007c-0.114349365 0 -0.23194885 0.0025634766 -0.35035706 0.007675171c-2.4622803 0.11419678 -3.6204224 1.0400238 -3.674759 2.9828339c-0.023513794 0.54382324 -0.047027588 0.78500366 -0.094070435 0.78500366c-0.0259552 0 -0.060012817 -0.07476807 -0.10543823 -0.2135315c-0.07785034 -0.24067688 -0.12408447 -0.35487366 -0.1532898 -0.35487366c-0.025131226 0 -0.03729248 0.082962036 -0.045410156 0.24067688c-0.017837524 0.20585632 -0.14517212 0.5484314 -0.30818176 0.7655487c-0.23519897 0.3200531 -0.21655273 0.39993286 0.16300964 0.57147217c0.23519897 0.11419678 0.36253357 0.20585632 0.271698 0.21713257c-0.09083557 0.011764526 -0.25305176 0.023040771 -0.36172485 0.034301758c-0.43470764 0.045578003 -0.4890442 0.24015808 -0.47120667 1.6801147c0 0.81163025 -0.07217407 2.4344025 -0.1443634 3.6003876l-0.14517212 2.1143494l-0.5247345 -0.08039856c-0.14517212 -0.021499634 -0.36332703 -0.03277588 -0.60583496 -0.03277588c-0.27168274 0 -0.5750122 0.014343262 -0.84184265 0.044555664l-0.90509033 0.091156006l0 1.9771118l0 1.9888916l-2.6796265 0c-1.7737122 0 -2.7509918 0.05683899 -2.9318542 0.1715393c-0.21734619 0.12545776 -0.23519897 1.9197693 -0.1273346 7.714386l0.14518738 7.5428467l-0.5247345 0.35435486c-0.59935 0.40812683 -2.1451569 0.75531006 -3.2278748 0.75531006c-0.1605835 0 -0.31143188 -0.007675171 -0.44688416 -0.02355957c-0.95944214 -0.11470032 -2.8239746 -1.1086273 -2.9140015 -1.5546417c-0.0519104 -0.20483398 -0.19950867 -0.29803467 -0.4752655 -0.29803467c-0.016220093 0 -0.0332489 5.187988E-4 -0.05027771 0.0010223389c-0.04055786 0.0030670166 -0.077041626 0.005630493 -0.1111145 0.005630493c-0.32603455 0 -0.33738708 -0.2073822 -0.3049469 -1.720047c0.017852783 -0.96014404 0.108688354 -2.2628632 0.19952393 -2.8916779c0.10786438 -0.8111267 0.07217407 -1.1885223 -0.09083557 -1.2684174c-0.32603455 -0.11418152 -0.34387207 -0.7430115 -0.036499023 -0.86846924c0.32603455 -0.12597656 0.271698 -0.6057892 -0.054336548 -0.67440796c-0.21655273 -0.045562744 -0.18086243 -0.20584106 0.14517212 -0.59451294c0.34387207 -0.39993286 0.39820862 -0.5940094 0.21734619 -0.7768097c-0.14517212 -0.12597656 -0.18084717 -0.3656311 -0.07298279 -0.5259094c0.09083557 -0.14849854 0.108673096 -0.49157715 0.054336548 -0.7430115c-0.07948303 -0.31185913 -0.18734741 -0.42912292 -0.4590454 -0.42912292c-0.03730774 0 -0.077041626 0.0025634766 -0.120025635 0.006668091c-0.023529053 0.0010223389 -0.04623413 0.0020446777 -0.06732178 0.0020446777c-0.33088684 0 -0.47850037 -0.17462158 -0.8012848 -0.88230896c-0.21736145 -0.5028534 -0.45256042 -0.94836426 -0.506897 -0.982666c-0.054336548 -0.034301758 -1.5020142 -0.10292053 -3.2221985 -0.14901733l-3.1135101 -0.07987976l0.14517212 0.5602112c0.090026855 0.30827332 0.45254517 0.937088 0.83291626 1.3943787l0.68774414 0.84542847l0 3.2004547l0 3.1886902l-2.806137 0c-3.0770264 0 -3.1492004 0.022521973 -3.4030457 0.89100647c-0.1443634 0.53715515 -0.1630249 0.53715515 -1.2668304 0.53715515c-1.2489777 0 -2.1175842 -0.37687683 -2.3714294 -1.0400085c-0.090026855 -0.21711731 -0.2530365 -0.38815308 -0.3617096 -0.38815308c-0.108688354 0 -0.19952393 -3.7033234 -0.19952393 -8.708832c0 -6.366104 -0.07217407 -8.800507 -0.27168274 -9.074966c-0.1443634 -0.20535278 -0.74209595 -0.5371704 -1.3390045 -0.74250793c-0.68774414 -0.2288971 -1.1046143 -0.48033142 -1.1589508 -0.67440796c-0.035690308 -0.1828003 -0.2530365 -0.32003784 -0.5604248 -0.34309387c-0.41685486 -0.034301758 -0.5255432 -0.13722229 -0.5255432 -0.47981262c0 -0.7430115 -0.34387207 -0.9713898 -1.4841614 -0.9713898c-1.4476776 0 -1.900238 0.1828003 -1.900238 0.7885895c0 0.4454956 -0.108673096 0.53715515 -0.7785797 0.7087097c-1.3033142 0.34257507 -2.769638 1.0512848 -3.240036 1.5428772c-0.23519897 0.25141907 -0.506897 0.7768097 -0.57907104 1.1654816c-0.09083557 0.37739563 -0.21736145 0.7317505 -0.28953552 0.7773285c-0.014602661 0.00869751 -0.03892517 0.012802124 -0.07218933 0.012802124c-0.13949585 0 -0.43226624 -0.07374573 -0.72424316 -0.18435669c-0.36090088 -0.13006592 -0.8523865 -0.22940063 -1.1338043 -0.22940063c-0.014602661 0 -0.029205322 0 -0.04298401 0.0010223389c-0.3803711 0.011260986 -0.41687012 0.034301758 -0.09083557 0.07987976c0.47039795 0.07987976 0.5247345 0.3313141 0.054336548 0.3313141c-0.19869995 0 -0.39820862 -0.011260986 -0.47039795 -0.034317017c-0.007293701 -0.0020446777 -0.016220093 -0.0035705566 -0.025131226 -0.0035705566c-0.077056885 0 -0.2052002 0.085510254 -0.31874084 0.1981659c-0.19950867 0.23965454 -0.27168274 13.017426 -0.07217407 14.308868c0.053527832 0.36561584 0.017837524 0.67440796 -0.108673096 0.67440796c-0.19952393 0 -0.7964325 -1.5085754 -0.70640564 -1.7830505c0.09083557 -0.28573608 0 -0.64009094 -0.18086243 -0.64009094c-0.09083557 0 -0.16300964 0.17155457 -0.18086243 0.38867188c0 0.21711731 -0.01864624 0.7087097 -0.054336548 1.1086273c-0.021896362 0.41427612 -0.03730774 0.5827484 -0.12164307 0.5827484c-0.05596924 0 -0.14031982 -0.07220459 -0.27656555 -0.19407654c-0.21005249 -0.19407654 -0.3552246 -0.29444885 -0.4922943 -0.29444885c-0.16949463 0 -0.32522583 0.15464783 -0.5758209 0.4772644c-0.24980164 0.33129883 -0.4655304 0.49363708 -0.61151123 0.49363708c-0.1703186 0 -0.24493408 -0.22224426 -0.16706848 -0.6539154c0.14517212 -0.8454437 -0.37956238 -3.1082916 -0.8321228 -3.5200043c-0.19950867 -0.1715393 -0.3625183 -0.42297363 -0.3625183 -0.5602112c0 -0.25141907 -1.8823853 -0.7081909 -3.674759 -0.90278625c-0.4703827 -0.045562744 -0.8507538 -0.15975952 -0.86860657 -0.26268005c0 -0.091674805 -0.017837524 -1.5771942 -0.03567505 -3.3146515c-0.016220093 -1.5101166 -0.04623413 -2.5567932 -0.08921814 -2.5567932c-0.0064849854 0 -0.012969971 0.021514893 -0.019454956 0.06555176c-0.036499023 0.35435486 -0.21736145 0.7087097 -0.39822388 0.79985046c-0.27168274 0.12597656 -0.34387207 0.6513672 -0.34387207 2.6745605c-0.014602661 1.7866364 -0.1257019 2.656128 -0.36009216 2.656128c-0.06893921 0 -0.14759827 -0.07424927 -0.23762512 -0.22172546c-0.07055664 -0.1116333 -0.1111145 -0.16590881 -0.16545105 -0.16590881c-0.05758667 0 -0.12976074 0.059906006 -0.2692566 0.1771698c-0.1630249 0.13723755 -0.6334076 0.29701233 -1.049469 0.34309387c-0.7420807 0.10292053 -0.7420807 0.10292053 -0.81507874 1.0057068c-0.053527832 0.7542877 -0.12652588 0.9140625 -0.506073 0.971405c-0.32603455 0.05683899 -0.4347229 0.19407654 -0.4347229 0.5484314c0 0.8116455 -0.34387207 1.1660004 -1.2311249 1.2689209c-0.5247345 0.05683899 -0.81427 0.17103577 -0.81427 0.3313141c0 0.12545776 -0.16300964 0.35435486 -0.3803711 0.5028534c-0.21734619 0.14849854 -0.43470764 0.57147217 -0.5068817 0.937088l-0.12652588 0.663147l-2.932663 0l0 -8.4917145l0 -8.503494l-0.5068817 -0.69692993c-0.46310425 -0.6185913 -0.5871887 -0.7845001 -0.40145874 -0.7845001c0.068115234 0 0.17842102 0.022018433 0.3292694 0.052734375c0.13543701 0.026641846 0.2384491 0.04096985 0.31062317 0.04096985c0.20762634 0 0.16139221 -0.11828613 -0.09326172 -0.4065857c-0.12652588 -0.15975952 -0.4160614 -0.2739563 -0.6520691 -0.2739563c-0.23519897 0 -0.5247345 -0.08039856 -0.61476135 -0.18331909c-0.09083557 -0.10241699 -0.14517212 -1.4512177 -0.108673096 -3.0053558l0.054336548 -2.8230743l-0.7063904 -0.16027832c-0.81427 -0.1828003 -1.2124939 -0.6856537 -0.99513245 -1.2796631c0.108673096 -0.34309387 0.035690308 -0.43423462 -0.41687012 -0.5371704c-0.542572 -0.13723755 -0.542572 -0.13723755 -1.2124786 -2.1829681c-0.07217407 -0.21711731 -0.32603455 -0.5028534 -0.5612335 -0.62882996c-0.23518372 -0.13723755 -0.43470764 -0.34257507 -0.43470764 -0.4454956c0 -0.18077087 -0.24491882 -0.28829956 -0.53526306 -0.28829956c-0.16950989 0 -0.35443115 0.036865234 -0.5141907 0.116744995c-0.15653992 0.0814209 -0.24331665 0.12136841 -0.27331543 0.12136841c-0.029205322 0 -0.006500244 -0.036865234 0.05595398 -0.11009216c0.271698 -0.28573608 -0.5068817 -0.74250793 -1.2668152 -0.74250793z" fill-rule="evenodd"/><path fill="#000000" fill-opacity="0.0" d="m-4.6329665 61.19767l314.96063 0l0 72.7244l-314.96063 0z" fill-rule="evenodd"/><path fill="#022e51" d="m91.64032 104.23454q0 -1.828125 -1.296875 -2.796875q-1.28125 -0.984375 -4.640625 -2.0625q-3.34375 -1.09375 -5.296875 -2.15625q-5.328125 -2.875 -5.328125 -7.75q0 -2.53125 1.421875 -4.515625q1.4375 -2.0 4.109375 -3.109375q2.671875 -1.125 6.0 -1.125q3.359375 0 5.96875 1.21875q2.625 1.21875 4.078125 3.4375q1.453125 2.203125 1.453125 5.015625l-6.453125 0q0 -2.140625 -1.359375 -3.328125q-1.34375 -1.203125 -3.796875 -1.203125q-2.359375 0 -3.671875 1.0q-1.3125 1.0 -1.3125 2.625q0 1.53125 1.53125 2.5625q1.546875 1.03125 4.53125 1.9375q5.5 1.65625 8.015625 4.109375q2.515625 2.4375 2.515625 6.09375q0 4.0625 -3.078125 6.375q-3.0625 2.3125 -8.265625 2.3125q-3.609375 0 -6.578125 -1.328125q-2.96875 -1.328125 -4.53125 -3.625q-1.546875 -2.296875 -1.546875 -5.328125l6.46875 0q0 5.1875 6.1875 5.1875q2.296875 0 3.578125 -0.9375q1.296875 -0.9375 1.296875 -2.609375zm9.455078 -3.640625q0 -3.453125 1.328125 -6.15625q1.328125 -2.71875 3.828125 -4.1875q2.515625 -1.484375 5.8125 -1.484375q4.71875 0 7.6875 2.875q2.96875 2.875 3.3125 7.8125l0.046875 1.59375q0 5.359375 -2.984375 8.59375q-2.984375 3.234375 -8.015625 3.234375q-5.03125 0 -8.03125 -3.21875q-2.984375 -3.234375 -2.984375 -8.78125l0 -0.28125zm6.203125 0.453125q0 3.3125 1.25 5.0625q1.25 1.75 3.5625 1.75q2.265625 0 3.53125 -1.71875q1.265625 -1.734375 1.265625 -5.546875q0 -3.234375 -1.265625 -5.015625q-1.265625 -1.796875 -3.578125 -1.796875q-2.265625 0 -3.515625 1.78125q-1.25 1.765625 -1.25 5.484375zm29.300781 6.8125q1.71875 0 2.796875 -0.9375q1.078125 -0.953125 1.125 -2.515625l5.8125 0q-0.015625 2.359375 -1.28125 4.328125q-1.265625 1.96875 -3.46875 3.0625q-2.203125 1.078125 -4.875 1.078125q-4.984375 0 -7.859375 -3.171875q-2.875 -3.171875 -2.875 -8.765625l0 -0.40625q0 -5.375 2.859375 -8.5625q2.859375 -3.203125 7.84375 -3.203125q4.359375 0 6.984375 2.484375q2.640625 2.46875 2.671875 6.59375l-5.8125 0q-0.046875 -1.796875 -1.125 -2.921875q-1.078125 -1.140625 -2.828125 -1.140625q-2.171875 0 -3.28125 1.59375q-1.109375 1.578125 -1.109375 5.109375l0 0.65625q0 3.578125 1.09375 5.15625q1.09375 1.5625 3.328125 1.5625zm19.835938 4.578125l-6.234375 0l0 -23.25l6.234375 0l0 23.25zm-6.59375 -29.265625q0 -1.390625 0.9375 -2.296875q0.9375 -0.90625 2.546875 -0.90625q1.578125 0 2.515625 0.90625q0.953125 0.90625 0.953125 2.296875q0 1.421875 -0.953125 2.328125q-0.953125 0.890625 -2.53125 0.890625q-1.5625 0 -2.515625 -0.890625q-0.953125 -0.90625 -0.953125 -2.328125zm22.40039 29.703125q-5.109375 0 -8.328125 -3.140625q-3.203125 -3.140625 -3.203125 -8.359375l0 -0.609375q0 -3.5 1.34375 -6.25q1.359375 -2.765625 3.84375 -4.25q2.484375 -1.5 5.65625 -1.5q4.78125 0 7.515625 3.015625q2.734375 3.0 2.734375 8.515625l0 2.53125l-14.796875 0q0.296875 2.28125 1.8125 3.65625q1.515625 1.375 3.84375 1.375q3.578125 0 5.59375 -2.59375l3.0625 3.40625q-1.40625 1.984375 -3.796875 3.09375q-2.375 1.109375 -5.28125 1.109375zm-0.703125 -19.09375q-1.84375 0 -3.0 1.25q-1.140625 1.25 -1.46875 3.5625l8.640625 0l0 -0.484375q-0.046875 -2.0625 -1.125 -3.1875q-1.0625 -1.140625 -3.046875 -1.140625zm21.220703 -10.3125l0 5.71875l3.984375 0l0 4.5625l-3.984375 0l0 11.59375q0 1.296875 0.5 1.859375q0.5 0.546875 1.890625 0.546875q1.03125 0 1.828125 -0.140625l0 4.703125q-1.828125 0.5625 -3.765625 0.5625q-6.53125 0 -6.65625 -6.609375l0 -12.515625l-3.390625 0l0 -4.5625l3.390625 0l0 -5.71875l6.203125 0zm20.914062 28.96875q-0.4375 -0.84375 -0.625 -2.078125q-2.25 2.515625 -5.859375 2.515625q-3.421875 0 -5.671875 -1.984375q-2.234375 -1.984375 -2.234375 -4.984375q0 -3.703125 2.734375 -5.671875q2.734375 -1.984375 7.921875 -2.0l2.84375 0l0 -1.328125q0 -1.609375 -0.828125 -2.578125q-0.8125 -0.96875 -2.609375 -0.96875q-1.5625 0 -2.453125 0.75q-0.890625 0.75 -0.890625 2.0625l-6.203125 0q0 -2.015625 1.234375 -3.734375q1.25 -1.71875 3.53125 -2.6875q2.28125 -0.984375 5.109375 -0.984375q4.296875 0 6.8125 2.15625q2.53125 2.15625 2.53125 6.0625l0 10.078125q0.03125 3.3125 0.921875 5.015625l0 0.359375l-6.265625 0zm-5.140625 -4.3125q1.375 0 2.53125 -0.609375q1.171875 -0.625 1.71875 -1.65625l0 -4.0l-2.3125 0q-4.65625 0 -4.96875 3.234375l-0.015625 0.359375q0 1.15625 0.8125 1.921875q0.8125 0.75 2.234375 0.75zm21.808594 4.3125l-6.234375 0l0 -33.0l6.234375 0l0 33.0z" fill-rule="nonzero"/></g></svg>