<?xml version="1.0" standalone="no"?>
<!DOCTYPE svg PUBLIC "-//W3C//DTD SVG 20010904//EN"
 "http://www.w3.org/TR/2001/REC-SVG-20010904/DTD/svg10.dtd">
<svg version="1.0" xmlns="http://www.w3.org/2000/svg"
 width="722.000000pt" height="722.000000pt" viewBox="0 0 722.000000 722.000000"
 preserveAspectRatio="xMidYMid meet">
<metadata>
Created by potrace 1.14, written by Peter Selinger 2001-2017
</metadata>
<g transform="translate(0.000000,722.000000) scale(0.100000,-0.100000)"
fill="#000000" stroke="none">
<path d="M5888 7184 c-3 -2 -18 -6 -34 -8 -48 -6 -88 -18 -114 -35 -126 -80
-181 -216 -145 -356 9 -33 20 -61 25 -63 6 -2 10 -9 10 -16 0 -20 80 -94 126
-116 54 -27 77 -32 145 -31 115 0 222 70 276 180 35 70 37 181 5 253 -21 47
-96 138 -114 138 -5 0 -20 8 -35 17 -28 19 -30 19 -83 28 -19 3 -40 8 -47 10
-6 2 -13 2 -15 -1z"/>
<path d="M5989 6440 c-63 -33 -83 -119 -40 -179 33 -46 83 -59 150 -40 57 16
88 107 57 167 -32 62 -104 84 -167 52z"/>
<path d="M5370 6412 c-24 -8 -51 -21 -58 -29 -7 -7 -16 -13 -20 -13 -4 0 -20
-20 -35 -45 -48 -76 -45 -175 9 -257 30 -46 30 -46 -2 -83 -15 -16 -38 -47
-52 -67 -13 -21 -28 -38 -33 -38 -4 0 -10 -9 -14 -19 -6 -19 -8 -19 -53 5 -26
13 -54 29 -62 33 -142 85 -578 242 -765 275 -16 3 -41 8 -55 11 -64 14 -121
24 -161 29 -24 3 -53 8 -65 10 -60 12 -231 20 -409 19 -206 -1 -241 -3 -426
-28 -52 -6 -61 -8 -174 -31 -44 -9 -87 -18 -95 -19 -8 -2 -17 -4 -20 -5 -3 -1
-9 -2 -14 -1 -4 1 -14 -4 -22 -10 -8 -6 -14 -9 -14 -6 0 3 -12 2 -27 -3 -16
-5 -77 -24 -138 -43 -153 -49 -246 -87 -425 -174 -148 -73 -194 -99 -323 -184
-32 -22 -62 -39 -67 -39 -6 0 -10 -4 -10 -8 0 -4 -15 -16 -32 -27 -18 -10 -38
-24 -44 -29 -7 -6 -27 -22 -44 -36 -18 -14 -41 -33 -51 -42 -11 -10 -23 -18
-28 -18 -5 0 -11 -3 -13 -7 -2 -5 -25 -28 -53 -52 -143 -126 -295 -285 -385
-401 -19 -25 -37 -47 -40 -50 -3 -3 -17 -21 -30 -40 -13 -19 -27 -37 -30 -40
-3 -3 -24 -34 -47 -70 -24 -36 -46 -69 -50 -75 -35 -44 -158 -276 -222 -418
-60 -132 -159 -433 -186 -562 -16 -80 -26 -135 -31 -165 -3 -19 -7 -46 -10
-60 -3 -14 -7 -38 -8 -55 -2 -16 -8 -64 -12 -105 -11 -89 -11 -498 -2 -590 13
-119 30 -228 53 -340 3 -14 8 -38 11 -55 3 -16 12 -52 20 -80 8 -27 15 -52 15
-55 2 -7 5 -16 40 -130 30 -98 115 -317 142 -364 6 -12 12 -23 12 -26 1 -9 55
-113 91 -175 19 -33 37 -68 41 -77 3 -10 9 -18 14 -18 5 0 9 -4 9 -9 0 -14
139 -219 200 -295 167 -209 379 -418 565 -556 33 -25 62 -47 65 -50 7 -8 142
-96 210 -138 88 -54 287 -156 385 -196 50 -21 99 -41 110 -46 25 -11 135 -50
155 -55 8 -2 31 -9 50 -15 40 -13 127 -37 162 -45 33 -7 98 -22 128 -29 14 -4
41 -8 60 -11 19 -3 46 -7 60 -10 14 -3 45 -8 70 -10 25 -3 54 -7 65 -10 128
-29 625 -23 795 10 19 4 49 8 65 10 28 3 87 12 124 20 20 4 182 44 196 49 6 1
30 8 55 15 62 17 253 83 265 91 6 4 21 11 34 15 13 4 40 14 60 23 20 9 39 15
44 14 4 -1 7 3 7 8 0 6 9 10 20 10 11 0 20 4 20 10 0 5 3 9 8 8 11 -3 158 74
301 157 32 19 228 154 253 174 7 6 42 34 78 63 36 29 83 68 105 88 49 43 253
248 279 280 10 13 50 62 88 108 70 86 213 295 267 392 31 54 135 265 151 305
4 11 15 36 23 55 20 44 40 93 42 100 0 3 11 34 23 70 12 36 22 68 22 72 1 4 7
26 15 49 9 23 17 51 20 63 2 12 13 57 25 101 11 44 23 92 25 107 9 53 15 83
20 108 3 14 7 43 10 65 2 22 7 56 10 75 12 81 18 196 18 370 0 194 -10 346
-28 440 -3 13 -7 42 -10 65 -25 177 -92 420 -172 625 -50 127 -162 363 -175
368 -4 2 -8 8 -8 14 0 5 -19 41 -42 79 -24 39 -48 78 -53 87 -14 24 -95 142
-111 161 -7 9 -43 55 -81 102 -37 48 -98 121 -135 162 -38 41 -68 78 -68 82 0
4 24 38 53 74 30 36 60 76 68 89 11 19 19 22 44 17 108 -24 181 -12 238 39 95
84 98 235 5 336 -13 14 -122 100 -243 190 -121 91 -225 170 -232 177 -7 6 -28
21 -48 33 -19 12 -35 25 -35 30 0 5 -8 11 -17 14 -10 4 -33 19 -51 36 -37 32
-117 62 -172 65 -19 1 -55 -5 -80 -13z"/>
<path d="M6468 6275 c-92 -23 -150 -94 -153 -185 -8 -206 267 -280 373 -100
20 33 26 113 12 154 -32 98 -135 156 -232 131z"/>
</g>
</svg>
